<svg width="154" height="184" viewBox="0 0 154 184" fill="none" xmlns="http://www.w3.org/2000/svg">
<g filter="url(#filter0_d)">
<g clip-path="url(#clip0)">
<path d="M78.643 131.427C77.909 131.427 77.175 131.409 76.4221 131.371C67.915 130.9 59.9914 127.795 55.2485 123.052L18.0205 85.8052C13.3152 81.0999 10.7556 73.4209 11.0191 64.7633C11.2826 56.3691 14.2186 48.5584 18.9051 43.8907L33.9807 28.8151C34.4136 28.3822 35.11 28.3822 35.5429 28.8151C35.9757 29.248 35.9757 29.9444 35.5429 30.3772L20.4672 45.4529C16.176 49.7441 13.4846 56.9902 13.2399 64.8197C12.9953 72.7622 15.3667 80.0083 19.5826 84.2242L56.8294 121.471C61.1959 125.838 68.5738 128.717 76.5539 129.15C84.6281 129.583 91.9118 127.381 96.0525 123.24L111.58 107.713C112.013 107.28 112.709 107.28 113.142 107.713C113.575 108.146 113.575 108.842 113.142 109.275L97.6146 124.802C93.3799 129.075 86.5478 131.427 78.643 131.427ZM126.994 94.557C126.712 94.557 126.43 94.444 126.204 94.237C125.771 93.8041 125.771 93.1077 126.204 92.6749L133.751 85.1276C137.929 80.9493 140.508 74.0797 140.621 66.7771C140.752 59.2675 138.362 52.5108 134.09 48.2196L95.0738 9.20359C90.8014 4.93122 83.687 2.31509 76.0457 2.22099C68.4232 2.12688 61.4029 4.51715 57.2623 8.65778L47.513 18.4071C47.0801 18.84 46.3838 18.84 45.9509 18.4071C45.518 17.9742 45.518 17.2778 45.9509 16.8449L55.7002 7.09564C60.236 2.54095 67.8586 -0.112819 76.0645 0.000107385C84.4022 0.113034 91.893 2.89855 96.6359 7.62262L135.652 46.6386C140.357 51.3439 142.973 58.6841 142.842 66.7959C142.71 74.6631 139.887 82.0974 135.313 86.6898L127.766 94.237C127.559 94.444 127.277 94.557 126.994 94.557Z" fill="url(#paint0_linear)"/>
</g>
<path d="M108.71 58.986H104.836V57.6966C104.836 56.434 103.809 55.4066 102.546 55.4066H99.6854C98.4227 55.4066 97.3953 56.434 97.3953 57.6966V58.986H94.4066L92.1945 56.6262C91.6633 56.0596 91.3708 55.32 91.3708 54.5433V52.9203H99.8072C101.07 52.9203 102.097 51.8929 102.097 50.6302V41.3798C102.097 40.8377 101.658 40.3983 101.116 40.3983C100.574 40.3983 100.134 40.8377 100.134 41.3798V46.7177H86.7214V45.7244C86.7214 42.2971 83.9329 39.5086 80.5056 39.5086H75.704V33.29C75.704 33.1097 75.8508 32.9629 76.0311 32.9629H99.8072C99.9875 32.9629 100.134 33.1097 100.134 33.29V36.8573C100.134 37.3993 100.574 37.8387 101.116 37.8387C101.658 37.8387 102.097 37.3993 102.097 36.8573V33.29C102.097 32.0274 101.07 31 99.8072 31H76.0311C74.7684 31 73.7411 32.0274 73.7411 33.29V39.5085H64.9001C61.4727 39.5085 58.6843 42.297 58.6843 45.7243V48.7707C58.6843 49.3127 59.1237 49.7521 59.6657 49.7521C60.2077 49.7521 60.6471 49.3127 60.6471 48.7707V45.7243C60.6471 43.3793 62.5551 41.4714 64.9001 41.4714H80.5054C82.8504 41.4714 84.7584 43.3793 84.7584 45.7243V68.1936C84.7584 69.0957 84.0247 69.8294 83.1226 69.8294H76.0789V65.3357C76.0789 64.073 75.0515 63.0456 73.7888 63.0456H71.6168C70.3542 63.0456 69.3268 64.073 69.3268 65.3357V69.8294H62.2829C61.3809 69.8294 60.6471 69.0957 60.6471 68.1936V53.4816C60.6471 52.9396 60.2077 52.5002 59.6657 52.5002C59.1237 52.5002 58.6843 52.9396 58.6843 53.4816V58.986H56.4709V52.1352C56.4709 51.4498 55.9132 50.8921 55.2277 50.8921H55.0092V47.699C55.0092 45.9889 53.6179 44.5976 51.9078 44.5976C50.1978 44.5976 48.8065 45.9889 48.8065 47.699V50.8921H48.5879C47.9025 50.8921 47.3448 51.4498 47.3448 52.1352V58.986H46.29C45.0274 58.986 44 60.0134 44 61.276V64.2054C44 65.4681 45.0274 66.4955 46.29 66.4955H47.3448V96.3643C47.3448 97.2663 48.0785 98 48.9805 98H52.7571C53.6591 98 54.3929 97.2663 54.3929 96.3643V82.4146H58.6843V83.5618C58.6843 84.4638 59.418 85.1975 60.32 85.1975H69.3268V85.8935L61.012 95.2797C60.5795 95.7679 60.4772 96.4409 60.7448 97.0357C61.0124 97.6305 61.5842 98 62.2364 98H65.4739C65.9466 98 66.3959 97.7956 66.7066 97.4394L69.3268 94.4353V95.7098C69.3268 96.9725 70.3542 97.9999 71.6168 97.9999H73.7888C75.0515 97.9999 76.0789 96.9725 76.0789 95.7098V94.4353L78.6992 97.4395C79.01 97.7956 79.4592 97.9999 79.9318 97.9999H83.1692C83.8216 97.9999 84.3932 97.6303 84.6608 97.0356C84.9284 96.4408 84.8262 95.7678 84.3935 95.2796L76.0787 85.8934V85.1975H85.0855C85.9875 85.1975 86.7213 84.4638 86.7213 83.5618V82.4146H100.607V96.3643C100.607 97.2663 101.341 98 102.243 98H106.019C106.922 98 107.655 97.2663 107.655 96.3643V76.7979C107.655 76.2559 107.216 75.8165 106.674 75.8165C106.132 75.8165 105.692 76.2559 105.692 76.7979V96.0371H102.57V66.4955H105.692V72.087C105.692 72.629 106.132 73.0684 106.674 73.0684C107.216 73.0684 107.655 72.629 107.655 72.087V66.4955H108.71C109.973 66.4955 111 65.4681 111 64.2054V61.276C111 60.0134 109.973 58.986 108.71 58.986ZM99.3582 57.6966C99.3582 57.5163 99.5051 57.3695 99.6854 57.3695H102.546C102.727 57.3695 102.873 57.5163 102.873 57.6966V58.986H99.3582V57.6966ZM90.7623 57.9687L91.716 58.986H86.7214V52.9203H89.4079V54.5434C89.4079 55.8206 89.8888 57.0371 90.7623 57.9687ZM100.134 48.6804V50.6302C100.134 50.8105 99.9875 50.9574 99.8072 50.9574H86.7214V48.6804H100.134ZM71.2897 65.3357C71.2897 65.1553 71.4365 65.0085 71.6168 65.0085H73.7888C73.9692 65.0085 74.116 65.1553 74.116 65.3357V75.5547H71.2897V65.3357ZM49.3077 52.8551H54.508V54.6689H49.3077V52.8551ZM50.7694 47.699C50.7694 47.0712 51.2801 46.5605 51.9078 46.5605C52.5356 46.5605 53.0463 47.0712 53.0463 47.699V50.8921H50.7694V47.699ZM49.3077 56.6318H54.508V58.986H49.3077V56.6318ZM45.9629 64.2054V61.276C45.9629 61.0957 46.1097 60.9489 46.29 60.9489H58.6843V64.5326H46.29C46.1097 64.5326 45.9629 64.3858 45.9629 64.2054ZM52.43 96.0371H49.3077V66.4955H52.43V96.0371ZM54.3929 80.4518V66.4955H58.6843V68.1936C58.6843 70.178 60.2985 71.7923 62.2829 71.7923H69.3268V75.5546H63.2075C62.3327 75.5546 61.4891 75.8727 60.8319 76.4502L59.2403 77.849C58.887 78.1595 58.6844 78.6073 58.6844 79.0776V80.4516H54.3929V80.4518ZM65.3251 96.0371H62.9634L69.3268 88.8537V91.449L65.3251 96.0371ZM82.4423 96.0371H80.0805L76.0789 91.449V88.8537L82.4423 96.0371ZM74.116 95.71C74.116 95.8903 73.9692 96.0371 73.7888 96.0371H71.6168C71.4365 96.0371 71.2897 95.8903 71.2897 95.71V85.1975H74.116V95.71ZM84.7585 83.2346H75.0987C75.0983 83.2346 75.0979 83.2346 75.0974 83.2346C75.0969 83.2346 75.0966 83.2346 75.0961 83.2346H70.3095C70.3091 83.2346 70.3088 83.2346 70.3082 83.2346C70.3077 83.2346 70.3074 83.2346 70.3069 83.2346H60.6471V79.2257L62.1276 77.9247C62.4263 77.6622 62.8097 77.5176 63.2074 77.5176H82.1981C82.5958 77.5176 82.9792 77.6622 83.2778 77.9247L84.7582 79.2257V83.2346H84.7585ZM100.607 80.4518H86.7214V79.0777C86.7214 78.6074 86.5188 78.1596 86.1655 77.8491L84.5739 76.4503C83.9168 75.8727 83.073 75.5547 82.1982 75.5547H76.0789V71.7924H83.1228C85.1071 71.7924 86.7214 70.1781 86.7214 68.1938V66.4956H100.607V80.4518ZM108.71 60.9489C108.89 60.9489 109.037 61.0957 109.037 61.276V64.2054C109.037 64.3858 108.89 64.5326 108.71 64.5326H86.7214V60.9489H108.71Z" fill="url(#paint1_linear)"/>
</g>
<path d="M39.4968 179.427H37.8005V173.512H31.3493V179.427H29.6618V166.63H31.3493V172.132H37.8005V166.63H39.4968V179.427ZM41.8083 174.584C41.8083 173.653 41.99 172.815 42.3533 172.071C42.7224 171.327 43.2322 170.752 43.8826 170.348C44.5388 169.944 45.2859 169.742 46.1238 169.742C47.4187 169.742 48.4646 170.19 49.2615 171.086C50.0642 171.983 50.4656 173.175 50.4656 174.664V174.778C50.4656 175.704 50.2868 176.536 49.9294 177.274C49.5779 178.006 49.071 178.578 48.4089 178.988C47.7527 179.398 46.9968 179.603 46.1413 179.603C44.8523 179.603 43.8064 179.155 43.0036 178.258C42.2068 177.362 41.8083 176.175 41.8083 174.699V174.584ZM43.4431 174.778C43.4431 175.833 43.6863 176.679 44.1726 177.318C44.6648 177.957 45.321 178.276 46.1413 178.276C46.9675 178.276 47.6238 177.954 48.1101 177.309C48.5964 176.659 48.8396 175.75 48.8396 174.584C48.8396 173.542 48.5906 172.698 48.0925 172.053C47.6003 171.403 46.9441 171.078 46.1238 171.078C45.321 171.078 44.6736 171.397 44.1814 172.036C43.6892 172.674 43.4431 173.588 43.4431 174.778ZM54.0339 169.917L54.0779 170.972C54.7751 170.152 55.7156 169.742 56.8992 169.742C58.2292 169.742 59.1345 170.251 59.615 171.271C59.9314 170.814 60.3415 170.445 60.8454 170.164C61.3552 169.882 61.9558 169.742 62.6472 169.742C64.7331 169.742 65.7937 170.846 65.8288 173.055V179.427H64.2029V173.152C64.2029 172.472 64.0476 171.965 63.737 171.631C63.4265 171.292 62.905 171.122 62.1726 171.122C61.5691 171.122 61.0681 171.303 60.6697 171.667C60.2712 172.024 60.0398 172.507 59.9753 173.117V179.427H58.3406V173.196C58.3406 171.813 57.6638 171.122 56.3103 171.122C55.2439 171.122 54.5144 171.576 54.1218 172.484V179.427H52.4958V169.917H54.0339ZM72.2361 179.603C70.947 179.603 69.8982 179.181 69.0896 178.337C68.281 177.488 67.8767 176.354 67.8767 174.936V174.637C67.8767 173.694 68.0554 172.853 68.4128 172.115C68.7761 171.371 69.28 170.791 69.9245 170.375C70.5749 169.953 71.2781 169.742 72.0339 169.742C73.2702 169.742 74.2312 170.149 74.9167 170.963C75.6023 171.778 75.9451 172.944 75.9451 174.461V175.138H69.5027C69.5261 176.076 69.7986 176.834 70.3201 177.415C70.8474 177.989 71.5154 178.276 72.324 178.276C72.8982 178.276 73.3845 178.159 73.7829 177.924C74.1814 177.69 74.53 177.379 74.8288 176.993L75.822 177.766C75.0251 178.991 73.8298 179.603 72.2361 179.603ZM72.0339 171.078C71.3777 171.078 70.8269 171.318 70.3816 171.798C69.9363 172.273 69.6609 172.941 69.5554 173.802H74.3191V173.679C74.2722 172.853 74.0495 172.214 73.6511 171.763C73.2527 171.306 72.7136 171.078 72.0339 171.078ZM81.8689 174.584C81.8689 173.653 82.0505 172.815 82.4138 172.071C82.7829 171.327 83.2927 170.752 83.9431 170.348C84.5993 169.944 85.3464 169.742 86.1843 169.742C87.4792 169.742 88.5251 170.19 89.322 171.086C90.1247 171.983 90.5261 173.175 90.5261 174.664V174.778C90.5261 175.704 90.3474 176.536 89.99 177.274C89.6384 178.006 89.1316 178.578 88.4695 178.988C87.8132 179.398 87.0574 179.603 86.2019 179.603C84.9128 179.603 83.8669 179.155 83.0642 178.258C82.2673 177.362 81.8689 176.175 81.8689 174.699V174.584ZM83.5036 174.778C83.5036 175.833 83.7468 176.679 84.2331 177.318C84.7253 177.957 85.3816 178.276 86.2019 178.276C87.0281 178.276 87.6843 177.954 88.1706 177.309C88.657 176.659 88.9001 175.75 88.9001 174.584C88.9001 173.542 88.6511 172.698 88.1531 172.053C87.6609 171.403 87.0046 171.078 86.1843 171.078C85.3816 171.078 84.7341 171.397 84.2419 172.036C83.7497 172.674 83.5036 173.588 83.5036 174.778ZM93.365 179.427V171.174H91.862V169.917H93.365V168.942C93.365 167.922 93.6374 167.134 94.1824 166.578C94.7273 166.021 95.4978 165.743 96.4939 165.743C96.8689 165.743 97.241 165.792 97.6101 165.892L97.5222 167.21C97.2468 167.158 96.9538 167.131 96.6433 167.131C96.116 167.131 95.7087 167.287 95.4216 167.597C95.1345 167.902 94.991 168.341 94.991 168.916V169.917H98.5066V169.109C98.5066 168.048 98.8083 167.222 99.4118 166.63C100.021 166.039 100.88 165.743 101.987 165.743C102.643 165.743 103.472 165.921 104.474 166.279L104.202 167.65C103.469 167.357 102.769 167.21 102.101 167.21C101.404 167.21 100.9 167.366 100.59 167.676C100.285 167.987 100.133 168.458 100.133 169.091V169.917H102.084V171.174H100.133V179.427H98.5066V171.174H94.991V179.427H93.365ZM105.274 179.427H103.648V169.917H105.274V179.427ZM111.743 178.276C112.323 178.276 112.83 178.1 113.263 177.749C113.697 177.397 113.937 176.958 113.984 176.43H115.522C115.493 176.975 115.305 177.494 114.96 177.986C114.614 178.478 114.151 178.871 113.571 179.164C112.997 179.457 112.387 179.603 111.743 179.603C110.448 179.603 109.417 179.172 108.649 178.311C107.887 177.444 107.507 176.26 107.507 174.76V174.488C107.507 173.562 107.676 172.739 108.016 172.018C108.356 171.297 108.843 170.738 109.475 170.339C110.114 169.941 110.867 169.742 111.734 169.742C112.801 169.742 113.685 170.061 114.388 170.7C115.097 171.338 115.475 172.167 115.522 173.187H113.984C113.937 172.572 113.703 172.068 113.281 171.675C112.865 171.277 112.349 171.078 111.734 171.078C110.908 171.078 110.266 171.376 109.809 171.974C109.358 172.566 109.133 173.424 109.133 174.549V174.857C109.133 175.953 109.358 176.796 109.809 177.388C110.26 177.98 110.905 178.276 111.743 178.276ZM121.297 179.603C120.008 179.603 118.959 179.181 118.15 178.337C117.342 177.488 116.937 176.354 116.937 174.936V174.637C116.937 173.694 117.116 172.853 117.473 172.115C117.837 171.371 118.341 170.791 118.985 170.375C119.635 169.953 120.339 169.742 121.094 169.742C122.331 169.742 123.292 170.149 123.977 170.963C124.663 171.778 125.006 172.944 125.006 174.461V175.138H118.563C118.587 176.076 118.859 176.834 119.381 177.415C119.908 177.989 120.576 178.276 121.385 178.276C121.959 178.276 122.445 178.159 122.843 177.924C123.242 177.69 123.591 177.379 123.889 176.993L124.883 177.766C124.086 178.991 122.89 179.603 121.297 179.603ZM121.094 171.078C120.438 171.078 119.887 171.318 119.442 171.798C118.997 172.273 118.721 172.941 118.616 173.802H123.38V173.679C123.333 172.853 123.11 172.214 122.712 171.763C122.313 171.306 121.774 171.078 121.094 171.078Z" fill="#FAFEFF"/>
<defs>
<filter id="filter0_d" x="0.828297" y="-10.1717" width="152.185" height="151.771" filterUnits="userSpaceOnUse" color-interpolation-filters="sRGB">
<feFlood flood-opacity="0" result="BackgroundImageFix"/>
<feColorMatrix in="SourceAlpha" type="matrix" values="0 0 0 0 0 0 0 0 0 0 0 0 0 0 0 0 0 0 127 0" result="hardAlpha"/>
<feMorphology radius="2.9062" operator="dilate" in="SourceAlpha" result="effect1_dropShadow"/>
<feOffset/>
<feGaussianBlur stdDeviation="3.63275"/>
<feColorMatrix type="matrix" values="0 0 0 0 0 0 0 0 0 1 0 0 0 0 0.407843 0 0 0 1 0"/>
<feBlend mode="normal" in2="BackgroundImageFix" result="effect1_dropShadow"/>
<feBlend mode="normal" in="SourceGraphic" in2="effect1_dropShadow" result="shape"/>
</filter>
<linearGradient id="paint0_linear" x1="11.0002" y1="65.7179" x2="142.841" y2="65.7179" gradientUnits="userSpaceOnUse">
<stop stop-color="#8FFF70"/>
<stop offset="1" stop-color="#8FFFFF"/>
</linearGradient>
<linearGradient id="paint1_linear" x1="44" y1="65.0877" x2="111" y2="65.0877" gradientUnits="userSpaceOnUse">
<stop stop-color="#8FFF73"/>
<stop offset="1" stop-color="#8FFFF9"/>
</linearGradient>
<clipPath id="clip0">
<rect width="131.841" height="131.427" fill="white" transform="translate(11)"/>
</clipPath>
</defs>
</svg>
