<svg width="144" height="186" viewBox="0 0 144 186" fill="none" xmlns="http://www.w3.org/2000/svg">
<g clip-path="url(#clip0)">
<path d="M20.71 133.26C20.8464 132.914 21.0922 132.623 21.41 132.43C21.7368 132.225 22.1141 132.114 22.5 132.11C22.7699 132.101 23.0386 132.151 23.2873 132.256C23.5359 132.362 23.7587 132.52 23.94 132.72C24.2788 133.073 24.4716 133.541 24.48 134.03C24.479 134.298 24.4139 134.562 24.29 134.8C24.1664 135.032 24.0692 135.277 24 135.53C23.85 135.98 23.59 136.71 23.2 137.7L21.7 141.7L19.37 148L22.31 156L30.94 133.3C31.0723 132.952 31.3192 132.659 31.64 132.47C31.9648 132.26 32.3434 132.149 32.73 132.15C32.9998 132.142 33.268 132.193 33.5165 132.298C33.7649 132.403 33.9878 132.561 34.17 132.76C34.5088 133.113 34.7016 133.581 34.71 134.07C34.7041 134.337 34.6392 134.6 34.52 134.84C34.47 134.92 34.31 135.36 34.04 136.15C33.77 136.94 33.25 138.33 32.5 140.34C31.75 142.35 30.74 145.05 29.44 148.49C28.14 151.93 26.44 156.28 24.44 161.56C24.2886 161.997 24.0348 162.391 23.7 162.71C23.3172 163.028 22.8263 163.185 22.33 163.15C22.0662 163.159 21.8032 163.117 21.556 163.024C21.3089 162.931 21.0825 162.791 20.89 162.61C20.5798 162.331 20.3312 161.99 20.16 161.61C19.6 160.11 19.09 158.68 18.62 157.29C18.15 155.9 17.7 154.62 17.28 153.42C16.8067 154.62 16.3267 155.91 15.84 157.29C15.35 158.68 14.84 160.11 14.21 161.61C14.0621 162.046 13.8118 162.441 13.48 162.76C13.0912 163.074 12.5988 163.231 12.1 163.2C11.8362 163.209 11.5732 163.167 11.326 163.074C11.0789 162.981 10.8525 162.841 10.66 162.66C10.3515 162.379 10.1032 162.039 9.93003 161.66C8.13669 156.76 6.62336 152.613 5.39003 149.22C4.15003 145.83 3.15003 143.11 2.39003 141.04L0.700025 136.4C0.360025 135.46 0.190025 134.97 0.190025 134.92C0.0510882 134.634 -0.0142204 134.318 2.54455e-05 134C-0.0172006 133.499 0.154093 133.01 0.480025 132.63C0.652795 132.442 0.865536 132.295 1.10262 132.2C1.33969 132.104 1.59509 132.063 1.85003 132.08C2.27863 132.07 2.70133 132.181 3.07003 132.4C3.38781 132.593 3.63369 132.884 3.77003 133.23L12.08 156L15.15 147.94C14.3 145.64 13.57 143.67 12.98 142.03C12.39 140.39 11.89 139.03 11.5 138.03C11.11 137.03 10.85 136.25 10.67 135.76C10.5672 135.5 10.4837 135.232 10.42 134.96C10.2859 134.683 10.2207 134.378 10.23 134.07C10.2128 133.569 10.3841 133.08 10.71 132.7C10.8823 132.511 11.095 132.364 11.3322 132.269C11.5694 132.173 11.825 132.133 12.08 132.15C12.5085 132.141 12.9309 132.252 13.3 132.47C13.6178 132.663 13.8637 132.954 14 133.3L17.26 142.57L20.71 133.26Z" fill="white"/>
<path d="M67.06 157.3C65.6015 158.915 63.8931 160.286 62 161.36C60.0471 162.481 57.8318 163.064 55.58 163.05C51.5257 163.085 47.6205 161.523 44.71 158.7C43.2913 157.321 42.1625 155.672 41.39 153.85C40.5653 151.909 40.15 149.819 40.17 147.71C40.166 145.651 40.5705 143.612 41.36 141.71C42.1117 139.86 43.2212 138.176 44.6249 136.755C46.0286 135.334 47.6989 134.204 49.54 133.43C51.4892 132.61 53.5856 132.199 55.7 132.22C57.7161 132.211 59.7108 132.634 61.55 133.46C65.2357 135.096 68.1778 138.048 69.8 141.74C70.6333 143.63 71.0592 145.674 71.05 147.74V161.2C71.0534 161.46 71.0037 161.719 70.904 161.96C70.8043 162.2 70.6566 162.418 70.47 162.6C70.0957 162.969 69.5909 163.177 69.065 163.177C68.5391 163.177 68.0343 162.969 67.66 162.6C67.4747 162.418 67.3286 162.199 67.2306 161.959C67.1326 161.718 67.0848 161.46 67.09 161.2L67.06 157.3ZM67.06 147.71C67.0641 146.175 66.758 144.654 66.16 143.24C65.5869 141.862 64.7478 140.611 63.6909 139.557C62.6339 138.504 61.3797 137.669 60 137.1C58.587 136.498 57.0658 136.192 55.53 136.2C54.0036 136.189 52.4915 136.495 51.09 137.1C48.3342 138.27 46.1475 140.475 45 143.24C44.4006 144.653 44.0977 146.175 44.11 147.71C44.0955 149.236 44.3986 150.748 45 152.15C46.1738 154.897 48.3625 157.086 51.11 158.26C52.5033 158.837 53.9968 159.135 55.505 159.135C57.0132 159.135 58.5067 158.837 59.9 158.26C62.6271 157.116 64.8106 154.968 66 152.26C66.6276 150.814 66.9867 149.265 67.06 147.69" fill="white"/>
<path d="M94.48 132.24C96.0472 132.218 97.6054 132.479 99.08 133.01C100.316 133.454 101.495 134.045 102.59 134.77C103.442 135.32 104.207 135.994 104.86 136.77C105.269 137.18 105.547 137.702 105.66 138.27C105.66 138.501 105.609 138.73 105.51 138.939C105.412 139.148 105.268 139.333 105.09 139.48C104.745 139.808 104.286 139.991 103.81 139.99C103.283 139.993 102.777 139.788 102.4 139.42C101.32 138.468 100.09 137.701 98.76 137.15C97.3619 136.573 95.8626 136.28 94.35 136.29C92.8248 136.281 91.3138 136.584 89.91 137.18C87.1467 138.346 84.9523 140.551 83.8 143.32C83.2015 144.734 82.8986 146.255 82.91 147.79C82.8968 149.319 83.1998 150.834 83.8 152.24C84.9707 154.987 87.1608 157.174 89.91 158.34C91.3123 158.941 92.8243 159.244 94.35 159.23C95.863 159.244 97.3633 158.952 98.76 158.37C100.11 157.812 101.344 157.009 102.4 156C102.583 155.812 102.802 155.664 103.045 155.564C103.287 155.464 103.548 155.415 103.81 155.42C104.319 155.419 104.809 155.612 105.18 155.96C105.378 156.13 105.535 156.343 105.64 156.581C105.746 156.82 105.797 157.079 105.79 157.34C105.691 157.9 105.434 158.42 105.05 158.84C104.438 159.616 103.693 160.276 102.85 160.79C101.724 161.497 100.51 162.055 99.24 162.45C97.6574 162.941 96.0068 163.177 94.35 163.15C90.2981 163.183 86.3951 161.624 83.48 158.81C82.0633 157.425 80.9349 155.773 80.16 153.95C79.3354 152.009 78.92 149.919 78.94 147.81C78.9317 145.801 79.3205 143.809 80.0842 141.951C80.8479 140.092 81.9714 138.403 83.39 136.98C84.8061 135.571 86.4752 134.441 88.31 133.65C90.2608 132.805 92.3549 132.34 94.48 132.28" fill="white"/>
<path d="M128.61 132.18C130.626 132.172 132.621 132.595 134.46 133.42C138.146 135.056 141.088 138.008 142.71 141.7C143.518 143.583 143.935 145.611 143.935 147.66C143.935 149.709 143.518 151.737 142.71 153.62C141.923 155.438 140.808 157.096 139.42 158.51C138.021 159.926 136.36 161.057 134.53 161.84C132.608 162.656 130.538 163.068 128.45 163.05C124.399 163.083 120.498 161.52 117.59 158.7C116.168 157.321 115.036 155.672 114.26 153.85C113.439 151.908 113.027 149.818 113.05 147.71C113.031 145.65 113.432 143.609 114.23 141.71C114.997 139.897 116.103 138.247 117.49 136.85C118.909 135.446 120.577 134.32 122.41 133.53C124.361 132.687 126.455 132.222 128.58 132.16L128.61 132.18ZM128.45 136.16C126.924 136.151 125.412 136.457 124.01 137.06C122.651 137.64 121.415 138.475 120.37 139.52C119.3 140.59 118.452 141.861 117.876 143.259C117.299 144.658 117.005 146.157 117.01 147.67C117.001 149.195 117.304 150.706 117.9 152.11C119.082 154.852 121.268 157.038 124.01 158.22C125.414 158.815 126.925 159.117 128.45 159.11C129.988 159.116 131.511 158.814 132.93 158.22C135.688 157.055 137.886 154.864 139.06 152.11C139.665 150.708 139.971 149.196 139.96 147.67C139.958 144.617 138.751 141.687 136.6 139.52C135.565 138.492 134.343 137.671 133 137.1C131.583 136.498 130.059 136.192 128.52 136.2" fill="white"/>
<path d="M59.41 3.56995C48.0352 12.274 37.463 21.9795 27.82 32.57C30.45 37.6899 31.74 40.22 34.26 45.25C34.2991 45.2995 34.3326 45.3531 34.36 45.41C39.9 56.5 45.36 67.63 50.79 78.76C52.87 82.99 55.52 85.4799 57.9 85.45C60.01 85.45 62.36 83.45 64.39 80.01C66.29 83.76 67.24 85.64 69.16 89.4C67.8039 91.1288 66.0757 92.53 64.1039 93.4994C62.1321 94.4689 59.9672 94.9818 57.77 95C50.51 95 45 89.46 42.17 83.21C35.28 68.9 28.38 54.61 21.28 40.41C19.84 42.2299 18.42 44.07 17 46C14.6659 49.779 13.4296 54.1332 13.4296 58.575C13.4296 63.0167 14.6659 67.3709 17 71.15C29.2256 87.0673 43.4798 101.318 59.4 113.54C63.1772 115.874 67.5297 117.111 71.97 117.111C76.4103 117.111 80.7628 115.874 84.54 113.54C100.479 101.304 114.753 87.0406 127 71.11C129.319 67.3326 130.546 62.9871 130.546 58.555C130.546 54.1228 129.319 49.7773 127 46C125.593 44.1066 124.167 42.2566 122.72 40.45C115.62 54.65 108.72 68.95 101.83 83.25C99 89.46 93.43 95 86.18 95C79.95 94.72 74.76 90.71 71.7 85.44L66.7 75.6L65.6 73.38C65.5488 73.326 65.5051 73.2655 65.47 73.2C65.09 72.46 64.9 72.09 64.53 71.34C61.3367 64.9799 58.16 58.6166 55 52.25C53.1217 49.1364 52.1133 45.576 52.08 41.9399C52.08 41.84 52.08 41.7299 52.08 41.63C52.1211 36.3468 54.2592 31.2964 58.024 27.5898C61.7888 23.8831 66.8719 21.8238 72.155 21.865C77.4381 21.9061 82.4885 24.0442 86.1952 27.809C89.9018 31.5738 91.9611 36.6568 91.92 41.9399V42.22C91.8354 45.6141 90.9076 48.9339 89.22 51.88L79.34 70.81C77.27 66.74 76.24 64.71 74.19 60.65C76.82 55.39 78.19 52.77 80.8 47.49C80.8407 47.4002 80.8874 47.3133 80.94 47.2299C81.8663 45.6419 82.3594 43.8384 82.37 42C82.3653 41.9334 82.3653 41.8665 82.37 41.7999C82.2643 39.0968 81.1094 36.5413 79.1506 34.6756C77.1917 32.81 74.583 31.781 71.8779 31.807C69.1729 31.833 66.5844 32.912 64.6618 34.815C62.7392 36.718 61.6337 39.2953 61.58 42C61.5852 42.0732 61.5852 42.1467 61.58 42.22C61.631 44.0715 62.1728 45.8764 63.15 47.45C63.2276 47.5723 63.2977 47.6992 63.36 47.83C65.45 51.98 66.48 54.0499 68.55 58.1899C71.3967 63.8299 74.26 69.47 77.14 75.11L78.91 78.65C78.9336 78.681 78.9537 78.7145 78.97 78.75C81 83 83.71 85.44 86.05 85.46C88.39 85.4799 91.05 83 93.15 78.77C100.73 63.33 108.3 47.89 116.15 32.58C106.505 21.9916 95.9328 12.2863 84.56 3.57995C80.7828 1.2456 76.4303 0.00915527 71.99 0.00915527C67.5497 0.00915527 63.1972 1.2456 59.42 3.57995" fill="url(#paint0_linear)"/>
<path d="M14.37 182.86V172.66H17.25C18.0754 172.641 18.8905 172.845 19.61 173.25C20.2887 173.64 20.8381 174.221 21.19 174.92C21.5729 175.693 21.765 176.547 21.75 177.41V178.07C21.7671 178.946 21.5751 179.813 21.19 180.6C20.8409 181.302 20.2863 181.881 19.6 182.26C18.8643 182.662 18.0381 182.868 17.2 182.86H14.37ZM15.72 173.76V181.76H17.13C17.5827 181.787 18.0357 181.711 18.4549 181.538C18.874 181.365 19.2484 181.099 19.55 180.76C20.1719 179.983 20.4821 179.003 20.42 178.01V177.41C20.4837 176.44 20.1922 175.48 19.6 174.71C19.3163 174.379 18.9607 174.117 18.5605 173.943C18.1602 173.77 17.7257 173.69 17.29 173.71L15.72 173.76Z" fill="white"/>
<path d="M25.35 173.27C25.349 173.073 25.4162 172.883 25.54 172.73C25.6148 172.657 25.7042 172.6 25.8025 172.564C25.9007 172.528 26.0056 172.513 26.11 172.52C26.2161 172.512 26.3226 172.526 26.4226 172.563C26.5226 172.599 26.6138 172.656 26.69 172.73C26.8214 172.879 26.8927 173.071 26.89 173.27C26.8947 173.463 26.8228 173.65 26.69 173.79C26.6138 173.864 26.5226 173.921 26.4226 173.957C26.3226 173.994 26.2161 174.008 26.11 174C26.0056 174.007 25.9007 173.992 25.8025 173.956C25.7042 173.92 25.6148 173.863 25.54 173.79C25.4144 173.646 25.3467 173.461 25.35 173.27ZM26.75 182.86H25.46V175.28H26.75V182.86Z" fill="white"/>
<path d="M30.2801 179C30.2272 177.994 30.5162 177 31.1001 176.18C31.3528 175.843 31.6828 175.572 32.0621 175.389C32.4415 175.207 32.8592 175.118 33.2801 175.13C33.6938 175.112 34.1059 175.193 34.4817 175.367C34.8576 175.541 35.1862 175.803 35.4401 176.13L35.5001 175.29H36.6901V182.69C36.7124 183.116 36.6466 183.541 36.4969 183.941C36.3472 184.34 36.1168 184.704 35.8201 185.01C35.1786 185.59 34.3336 185.892 33.4701 185.85C32.9176 185.851 32.3715 185.732 31.8701 185.5C31.3787 185.295 30.9605 184.946 30.6701 184.5L31.3401 183.73C31.5766 184.037 31.8793 184.286 32.2256 184.459C32.5719 184.632 32.9529 184.725 33.3401 184.73C33.6105 184.745 33.8811 184.705 34.1355 184.612C34.3899 184.519 34.6228 184.375 34.8201 184.19C35.0045 183.989 35.1458 183.752 35.2353 183.494C35.3247 183.236 35.3604 182.962 35.3401 182.69V182.04C35.0776 182.34 34.7506 182.577 34.3834 182.733C34.0162 182.889 33.6185 182.96 33.2201 182.94C32.8019 182.948 32.388 182.856 32.0135 182.669C31.6391 182.483 31.3154 182.209 31.0701 181.87C30.5021 181.024 30.2247 180.017 30.2801 179ZM31.5901 179.14C31.5523 179.844 31.734 180.543 32.1101 181.14C32.2735 181.376 32.4941 181.566 32.7511 181.694C33.0082 181.822 33.2933 181.882 33.5801 181.87C33.9566 181.885 34.3291 181.788 34.6498 181.59C34.9706 181.392 35.2249 181.103 35.3801 180.76V177.29C35.2196 176.957 34.9661 176.678 34.6501 176.486C34.3342 176.294 33.9694 176.198 33.6001 176.21C33.3119 176.198 33.0254 176.258 32.7668 176.386C32.5082 176.513 32.2858 176.704 32.1201 176.94C31.714 177.602 31.5284 178.376 31.5901 179.15V179.14Z" fill="white"/>
<path d="M40.42 173.27C40.4136 173.073 40.4814 172.88 40.61 172.73C40.7692 172.595 40.9712 172.52 41.18 172.52C41.3889 172.52 41.5909 172.595 41.75 172.73C41.8814 172.879 41.9527 173.071 41.95 173.27C41.9374 173.419 41.8831 173.562 41.7933 173.682C41.7036 173.802 41.582 173.894 41.4423 173.948C41.3027 174.002 41.1507 174.016 41.0035 173.988C40.8564 173.96 40.7201 173.892 40.61 173.79C40.4809 173.648 40.4126 173.462 40.42 173.27ZM41.82 182.86H40.52V175.28H41.82V182.86Z" fill="white"/>
<path d="M47.41 173.44V175.28H48.8301V176.28H47.41V181C47.3954 181.242 47.4623 181.481 47.6 181.68C47.6848 181.764 47.787 181.828 47.8994 181.868C48.0117 181.907 48.1315 181.922 48.25 181.91C48.4553 181.901 48.6595 181.874 48.8601 181.83V182.83C48.5343 182.92 48.1981 182.967 47.8601 182.97C47.6158 182.987 47.3708 182.948 47.1438 182.856C46.9168 182.765 46.7137 182.622 46.55 182.44C46.2279 182.013 46.0716 181.484 46.1101 180.95V176.25H44.7401V175.25H46.12V173.41L47.41 173.44Z" fill="white"/>
<path d="M56.79 182.86C56.685 182.605 56.6241 182.335 56.61 182.06C56.3358 182.359 56.0018 182.597 55.6298 182.759C55.2577 182.921 54.8558 183.003 54.45 183C53.7796 183.027 53.1233 182.802 52.61 182.37C52.3783 182.172 52.1935 181.924 52.069 181.646C51.9445 181.367 51.8834 181.065 51.89 180.76C51.8742 180.402 51.9484 180.047 52.1056 179.725C52.2628 179.404 52.4981 179.127 52.79 178.92C53.5425 178.438 54.4282 178.207 55.32 178.26H56.59V177.67C56.5995 177.47 56.5681 177.27 56.4976 177.083C56.4271 176.895 56.319 176.724 56.18 176.58C55.8479 176.294 55.417 176.151 54.98 176.18C54.5655 176.167 54.1581 176.29 53.82 176.53C53.6759 176.62 53.5571 176.745 53.4749 176.894C53.3927 177.043 53.3497 177.21 53.35 177.38H52C52.0107 176.978 52.1549 176.591 52.41 176.28C52.6963 175.915 53.0716 175.629 53.5 175.45C53.9784 175.238 54.4969 175.133 55.02 175.14C55.7433 175.108 56.4536 175.339 57.02 175.79C57.271 176.019 57.4697 176.299 57.6026 176.611C57.7355 176.923 57.7994 177.261 57.79 177.6V181.09C57.768 181.656 57.8598 182.22 58.06 182.75V182.86H56.79ZM54.64 181.86C55.0442 181.861 55.4413 181.754 55.79 181.55C56.1309 181.36 56.409 181.075 56.59 180.73V179.17H55.59C54 179.17 53.21 179.64 53.21 180.56C53.1934 180.746 53.2209 180.934 53.2904 181.108C53.3599 181.282 53.4694 181.436 53.61 181.56C53.9057 181.782 54.2708 181.892 54.64 181.87V181.86Z" fill="white"/>
<path d="M63.09 182.86H61.79V172.1H63.09V182.86Z" fill="white"/>
<path d="M78.08 180.19H73.81L72.81 182.86H71.46L75.35 172.66H76.53L80.43 182.86H79.05L78.08 180.19ZM74.21 179.09H77.68L75.94 174.32L74.21 179.09Z" fill="white"/>
<path d="M83.06 179C83.0023 177.994 83.2918 176.998 83.88 176.18C84.1313 175.844 84.4595 175.573 84.8371 175.391C85.2147 175.208 85.6307 175.118 86.05 175.13C86.4654 175.111 86.8791 175.192 87.2567 175.366C87.6343 175.54 87.9646 175.802 88.22 176.13L88.28 175.29H89.47V182.69C89.4929 183.117 89.4264 183.543 89.2749 183.943C89.1233 184.342 88.8901 184.706 88.59 185.01C88.2748 185.298 87.9057 185.52 87.5041 185.664C87.1025 185.808 86.6762 185.871 86.25 185.85C85.6975 185.852 85.1512 185.733 84.65 185.5C84.1587 185.295 83.7405 184.946 83.45 184.5L84.12 183.73C84.3565 184.037 84.6593 184.286 85.0056 184.459C85.3519 184.632 85.7329 184.725 86.12 184.73C86.3888 184.743 86.6575 184.703 86.9101 184.61C87.1627 184.517 87.3939 184.374 87.59 184.19C87.7763 183.989 87.9194 183.753 88.0106 183.495C88.1018 183.237 88.139 182.963 88.12 182.69V182.04C87.863 182.351 87.5385 182.599 87.1711 182.765C86.8037 182.931 86.4032 183.012 86 183C85.5805 183.008 85.1651 182.916 84.7891 182.729C84.4131 182.543 84.0875 182.269 83.84 181.93C83.2669 181.065 82.993 180.036 83.06 179ZM84.36 179.14C84.3253 179.845 84.5105 180.544 84.89 181.14C85.0535 181.376 85.2741 181.566 85.5311 181.694C85.7881 181.822 86.0733 181.882 86.36 181.87C86.7365 181.885 87.1091 181.788 87.4298 181.59C87.7506 181.392 88.0049 181.103 88.16 180.76V177.29C87.9996 176.957 87.7461 176.678 87.4301 176.486C87.1142 176.294 86.7494 176.198 86.38 176.21C86.0919 176.198 85.8054 176.258 85.5468 176.386C85.2882 176.513 85.0658 176.704 84.9 176.94C84.4905 177.601 84.3014 178.375 84.36 179.15V179.14Z" fill="white"/>
<path d="M96.33 183C95.8651 183.017 95.4016 182.937 94.9694 182.765C94.5372 182.593 94.1457 182.332 93.82 182C93.142 181.264 92.7826 180.29 92.82 179.29V179C92.8079 178.309 92.9551 177.625 93.25 177C93.5119 176.433 93.9277 175.952 94.45 175.61C94.9478 175.28 95.5328 175.106 96.13 175.11C96.5644 175.089 96.9976 175.169 97.3964 175.342C97.7952 175.516 98.1488 175.778 98.43 176.11C99.0269 176.913 99.3177 177.902 99.25 178.9V179.44H94.15C94.139 180.104 94.3741 180.749 94.81 181.25C95.009 181.474 95.2544 181.651 95.5289 181.77C95.8035 181.889 96.1008 181.947 96.4 181.94C96.8052 181.956 97.2067 181.859 97.56 181.66C97.884 181.468 98.169 181.217 98.4 180.92L99.19 181.53C98.887 182.007 98.4622 182.395 97.9595 182.653C97.4569 182.911 96.8944 183.031 96.33 183ZM96.17 176.2C95.9222 176.196 95.6764 176.245 95.4488 176.343C95.2212 176.441 95.0171 176.587 94.85 176.77C94.4706 177.223 94.2402 177.781 94.19 178.37H98V178.28C98.0011 177.725 97.8143 177.186 97.47 176.75C97.3089 176.566 97.1082 176.421 96.8831 176.326C96.658 176.231 96.4142 176.188 96.17 176.2Z" fill="white"/>
<path d="M103.78 175.28V176.23C104.045 175.881 104.389 175.601 104.783 175.411C105.178 175.221 105.612 175.129 106.05 175.14C107.65 175.14 108.46 176.04 108.48 177.85V182.85H107.18V177.85C107.212 177.415 107.08 176.983 106.81 176.64C106.655 176.499 106.474 176.392 106.276 176.325C106.078 176.258 105.868 176.232 105.66 176.25C105.265 176.242 104.877 176.358 104.55 176.58C104.232 176.809 103.977 177.115 103.81 177.47V182.87H102.51V175.29L103.78 175.28Z" fill="white"/>
<path d="M115.28 181.94C115.72 181.946 116.148 181.797 116.49 181.52C116.653 181.395 116.788 181.236 116.887 181.055C116.985 180.875 117.044 180.675 117.06 180.47H118.29C118.265 180.918 118.108 181.35 117.84 181.71C117.559 182.111 117.18 182.435 116.74 182.65C116.287 182.879 115.787 182.999 115.28 183C114.82 183.026 114.36 182.95 113.933 182.777C113.506 182.604 113.122 182.339 112.81 182C112.166 181.202 111.842 180.194 111.9 179.17V178.95C111.885 178.261 112.025 177.577 112.31 176.95C112.561 176.402 112.963 175.937 113.47 175.61C114.015 175.289 114.638 175.126 115.27 175.14C116.049 175.108 116.809 175.381 117.39 175.9C117.669 176.154 117.893 176.462 118.048 176.806C118.203 177.15 118.285 177.523 118.29 177.9H117.06C117.039 177.442 116.841 177.01 116.506 176.696C116.172 176.383 115.728 176.212 115.27 176.22C114.977 176.206 114.684 176.263 114.418 176.387C114.151 176.511 113.919 176.697 113.74 176.93C113.342 177.54 113.153 178.263 113.2 178.99V179.24C113.157 179.948 113.347 180.65 113.74 181.24C113.92 181.474 114.154 181.66 114.423 181.782C114.691 181.904 114.986 181.958 115.28 181.94Z" fill="white"/>
<path d="M124 181L125.77 175.32H127.16L124.1 184C123.633 185.26 122.883 185.89 121.85 185.89H121.6L121.12 185.8V184.75H121.47C121.823 184.764 122.172 184.67 122.47 184.48C122.765 184.214 122.974 183.865 123.07 183.48L123.36 182.71L120.66 175.21H122.07L124 181Z" fill="white"/>
</g>
<defs>
<linearGradient id="paint0_linear" x1="127.352" y1="58.5599" x2="13.4296" y2="58.5599" gradientUnits="userSpaceOnUse">
<stop stop-color="#00E6E3"/>
<stop offset="1" stop-color="#00FF68"/>
</linearGradient>
<clipPath id="clip0">
<rect width="143.95" height="185.92" fill="white"/>
</clipPath>
</defs>
</svg>
