<svg width="153" height="204" viewBox="0 0 153 204" fill="none" xmlns="http://www.w3.org/2000/svg">
<g filter="url(#filter0_d)">
<g clip-path="url(#clip0)">
<path d="M78.3256 131.427C77.5915 131.427 76.8575 131.409 76.1047 131.371C67.5976 130.9 59.6739 127.795 54.931 123.052L17.703 85.8052C12.9978 81.0999 10.4381 73.4209 10.7016 64.7633C10.9651 56.3691 13.9012 48.5584 18.5876 43.8907L33.6633 28.8151C34.0962 28.3822 34.7925 28.3822 35.2254 28.8151C35.6583 29.248 35.6583 29.9444 35.2254 30.3772L20.1498 45.4529C15.8586 49.7441 13.1672 56.9902 12.9225 64.8197C12.6778 72.7622 15.0493 80.0083 19.2652 84.2242L56.512 121.471C60.8785 125.838 68.2563 128.717 76.2364 129.15C84.3106 129.583 91.5944 127.381 95.735 123.24L111.262 107.713C111.695 107.28 112.392 107.28 112.824 107.713C113.257 108.146 113.257 108.842 112.824 109.275L97.2971 124.802C93.0624 129.075 86.2304 131.427 78.3256 131.427ZM126.677 94.557C126.394 94.557 126.112 94.444 125.886 94.237C125.453 93.8041 125.453 93.1077 125.886 92.6749L133.434 85.1276C137.612 80.9493 140.19 74.0797 140.303 66.7771C140.435 59.2675 138.045 52.5108 133.772 48.2196L94.7563 9.20359C90.4839 4.93122 83.3696 2.31509 75.7283 2.22099C68.1057 2.12688 61.0855 4.51715 56.9449 8.65778L47.1956 18.4071C46.7627 18.84 46.0663 18.84 45.6334 18.4071C45.2006 17.9742 45.2006 17.2778 45.6334 16.8449L55.3827 7.09564C59.9186 2.54095 67.5411 -0.112819 75.7471 0.000107385C84.0848 0.113034 91.5756 2.89855 96.3185 7.62262L135.334 46.6386C140.04 51.3439 142.656 58.6841 142.524 66.7959C142.392 74.6631 139.569 82.0974 134.996 86.6898L127.448 94.237C127.241 94.444 126.959 94.557 126.677 94.557Z" fill="url(#paint0_linear)"/>
<path d="M101.272 73.6472C101.358 73.3011 101.352 72.9298 101.24 72.5682V72.5678L100.279 69.4404C99.5019 66.9122 97.8728 64.6846 95.692 63.1685C95.6851 63.1644 95.6786 63.1595 95.6721 63.1551L94.4009 62.3173C92.9201 61.3407 90.9448 62.4075 90.9448 64.1845V65.5703C90.9448 66.6424 91.1345 67.6699 91.4957 68.6209C90.038 69.054 88.8534 70.1534 88.3211 71.6159C85.7206 72.5215 83.396 74.2168 81.7323 76.4318C79.9683 78.7804 79.0088 81.5637 78.9413 84.5002C76.1747 85.9095 73.4088 86.9101 70.6889 87.4862C72.8603 82.5201 72.9071 76.8445 69.2052 72.8965C70.7843 71.9105 72.2895 70.8818 73.6903 69.8255C75.7022 68.3085 77.5787 66.6798 79.2675 64.9849C85.7389 58.5102 89.4619 51.3157 92.6706 44.3869C93.4405 42.7244 93.7972 41.6145 95.2329 40.8605C96.1909 40.3567 96.7869 39.3671 96.7869 38.2742V34.2051H98.7341V39.0031C98.7341 39.9001 99.1318 40.7305 99.8225 41.2806C100.457 41.788 100.913 42.4604 101.175 43.279C103.331 50.0652 102.273 57.2289 99.2346 63.6661C98.9311 64.3044 99.3935 65.058 100.113 65.058C100.488 65.058 100.834 64.839 100.994 64.501L100.995 64.4998C102.005 62.3584 102.793 60.195 103.335 58.0682C104.69 52.7657 104.507 47.338 103.03 42.6867C102.657 41.5056 101.966 40.4908 101.032 39.7518C100.813 39.5787 100.682 39.298 100.682 39.0031V34.2051C100.682 33.1293 99.8079 32.2538 98.7341 32.2538H96.7869C95.7127 32.255 94.8401 33.1293 94.8392 34.2051V38.2742C94.8392 38.6346 94.639 38.9706 94.3314 39.1302C92.3005 40.1898 91.748 41.7445 90.905 43.5622C88.3536 49.0735 84.6522 56.8446 77.8915 63.6044C74.9709 66.5356 71.6221 69.1389 67.6703 71.5509C65.9782 70.3394 63.9225 69.6354 61.6613 69.5387C60.3949 69.4924 59.1449 69.6699 57.9244 70.0676C59.7433 66.4718 62.4376 63.9855 65.9648 62.657C67.0321 63.7271 68.3049 62.2414 67.4266 61.3622L66.9078 60.8422C66.6465 60.5806 66.2606 60.4896 65.9108 60.6058C62.1728 61.8546 59.1558 64.282 57.0197 67.7178C56.6841 65.1604 55.7611 62.607 53.2183 60.9937L49.9426 58.9157C49.2154 58.4542 48.3041 58.4948 47.6204 59.0185C46.9435 59.5369 46.6673 60.3973 46.9171 61.2107L47.8783 64.3385C48.4877 66.3215 49.6232 68.1176 51.1366 69.5326C47.3279 69.5549 43.6958 71.4587 41.6962 75.0663C40.0383 78.095 39.8396 81.7847 41.1218 85.7377C42.0846 88.6969 43.8275 91.5253 46.0298 93.7021C48.3529 95.9979 50.9842 97.3394 53.4283 97.4795C53.9357 97.5141 54.4456 97.5047 54.9412 97.4523C55.8021 97.3609 56.6756 97.3609 57.5357 97.4519C57.8391 97.4844 58.1459 97.4998 58.4514 97.4998C58.648 97.4998 58.8442 97.4933 59.0384 97.4803C61.5061 97.339 64.148 95.9861 66.4771 93.67C67.6561 92.4975 68.7014 91.1385 69.5655 89.6764C72.6897 89.1828 75.8712 88.159 79.0482 86.6237C79.9306 93.4916 85.8023 98.8157 92.892 98.8157C100.588 98.8157 106.85 92.5422 106.85 84.8313C106.85 80.4018 104.781 76.2855 101.272 73.6472ZM49.7403 63.764L48.7794 60.637C48.7717 60.6131 48.7672 60.5972 48.803 60.5692C48.8814 60.5095 48.6421 60.4002 52.1766 62.6428C54.589 64.1732 55.1302 66.8829 55.2399 70.1034L53.5664 69.0004C51.7472 67.732 50.3882 65.873 49.7403 63.764ZM69.5046 85.1336C67.8174 90.3203 63.253 95.2849 58.9174 95.5331C58.5237 95.5595 58.128 95.5526 57.7416 95.512C57.2427 95.4592 56.7414 95.4328 56.2393 95.4328C55.7375 95.4328 55.2354 95.4592 54.7373 95.512C54.3522 95.553 53.9565 95.5595 53.551 95.5323C51.5688 95.4189 49.3836 94.2757 47.3981 92.3131C45.4127 90.3512 43.8417 87.8015 42.9743 85.134C41.8624 81.7067 42.0111 78.5492 43.4021 76.0093C44.9179 73.2751 47.6484 71.6273 50.8884 71.4888C52.3875 71.4339 53.8679 71.767 55.2979 72.4772L55.7042 72.7449C56.0841 72.996 56.609 72.9586 56.9486 72.5958C58.4497 71.804 60.011 71.4323 61.5845 71.4888C67.6459 71.7476 72.0344 77.3357 69.5046 85.1336ZM92.892 64.1845C92.892 63.9578 93.1398 63.8217 93.3308 63.9473C94.5016 64.7192 95.9971 65.5512 97.3142 67.628C97.3435 67.8978 97.4824 68.1521 97.7144 68.3187C98 68.8602 98.2376 69.4274 98.418 70.0144L99.3793 73.1423C99.3862 73.1658 99.3914 73.1817 99.3549 73.2097C99.3069 73.2463 99.2781 73.2276 99.257 73.2142L95.9813 71.1357C92.6483 69.0215 92.892 65.9461 92.892 64.1845ZM92.892 96.864C86.2695 96.864 80.882 91.4664 80.882 84.8313C80.882 79.9809 83.7096 75.7159 88.0485 73.8154C88.1225 74.5166 88.3496 75.1984 88.7233 75.8175C88.9062 76.121 89.2275 76.288 89.5578 76.288C89.7293 76.288 89.9031 76.2429 90.0604 76.1474C90.5207 75.8687 90.6685 75.269 90.3903 74.8079C89.9913 74.1478 89.8715 73.3681 90.0518 72.6125C90.2879 71.6228 91.0037 70.8562 91.9182 70.5349V73.2552C91.9182 73.7894 92.3293 74.2554 92.8624 74.2717C93.4137 74.2879 93.8658 73.8451 93.8658 73.2966V71.9885C94.4756 72.5146 94.8961 72.7571 95.8106 73.3377C95.8037 73.854 95.6619 74.3643 95.3942 74.8079C95.1159 75.269 95.2634 75.8687 95.7237 76.1474C95.8813 76.2429 96.0548 76.288 96.2266 76.288C96.5561 76.288 96.8775 76.1206 97.0611 75.8175C97.3122 75.4015 97.4978 74.9501 97.6144 74.4817L98.2149 74.8632C98.5521 75.0769 98.9287 75.1825 99.3041 75.1825C99.5154 75.1825 99.7262 75.1484 99.9297 75.0814C103.053 77.3459 104.902 80.9482 104.902 84.8317C104.902 91.4664 99.5149 96.864 92.892 96.864Z" fill="url(#paint1_linear)"/>
<path d="M58.7211 59.7355C62.8378 59.7355 66.187 56.3798 66.187 52.255C66.187 48.1306 62.8378 44.7753 58.7211 44.7753C54.6045 44.7753 51.2556 48.1306 51.2556 52.255C51.2556 56.3798 54.6045 59.7355 58.7211 59.7355ZM58.7211 46.7266C61.764 46.7266 64.2394 49.2068 64.2394 52.255C64.2394 55.3036 61.764 57.7839 58.7211 57.7839C55.6786 57.7839 53.2028 55.3036 53.2028 52.255C53.2028 49.2068 55.6786 46.7266 58.7211 46.7266Z" fill="url(#paint2_linear)"/>
<path d="M56.7646 51.6443C56.9547 51.8345 57.2041 51.9299 57.4532 51.9299C57.7022 51.9299 57.9517 51.8345 58.1418 51.6443L58.427 51.3583L58.7126 51.6443C58.9023 51.8345 59.1518 51.9299 59.4008 51.9299C59.6499 51.9299 59.8993 51.8345 60.0894 51.6443C60.4693 51.2629 60.4693 50.6453 60.0894 50.2643L59.8042 49.9787L60.0894 49.6926C60.4693 49.3116 60.4693 48.6936 60.0894 48.313C59.7092 47.9319 59.0929 47.9319 58.7126 48.313L58.427 48.5986L58.1418 48.313C57.7611 47.9319 57.1448 47.9319 56.7646 48.313C56.3847 48.6936 56.3847 49.3116 56.7646 49.6926L57.0498 49.9787L56.7646 50.2643C56.3847 50.6453 56.3847 51.2633 56.7646 51.6443Z" fill="url(#paint3_linear)"/>
<path d="M76.4724 43.2087C78.0987 41.5791 78.5302 39.3138 77.7968 37.2467L78.0833 37.1281C78.5801 36.9217 78.8162 36.3509 78.6102 35.8533C78.4042 35.3552 77.8346 35.1191 77.3378 35.3251L76.8665 35.5205C76.8576 35.5079 76.849 35.4949 76.8393 35.4819L77.2009 35.1195C77.5811 34.7385 77.5811 34.1205 77.2009 33.7399C76.8206 33.3588 76.2039 33.3588 75.8236 33.7403L75.4608 34.1035C75.4482 34.0937 75.4356 34.0852 75.4235 34.0754L75.6189 33.6025C75.8244 33.1049 75.5888 32.5341 75.0919 32.3281C74.5955 32.1217 74.0255 32.3586 73.8195 32.8562L73.7017 33.1414C71.6212 32.3959 69.3762 32.8408 67.7507 34.4695C65.4773 36.7474 63.0767 42.7569 65.639 45.3245C68.2167 47.9071 74.2258 45.4594 76.4724 43.2087ZM66.7989 40.1637C67.2689 38.5086 68.2045 36.7751 69.128 35.8496C70.7794 34.1949 73.1813 34.4837 74.8197 36.1254C76.5488 37.8578 76.6646 40.2563 75.0952 41.829C74.1722 42.7537 72.4415 43.6917 70.7896 44.1626C69.0557 44.6562 67.6451 44.5749 67.0162 43.9444C66.3873 43.3143 66.3061 41.9009 66.7989 40.1637Z" fill="url(#paint4_linear)"/>
<path d="M72.06 40.2706C72.4399 39.8895 72.4399 39.272 72.06 38.8905C71.6798 38.5099 71.0635 38.5099 70.6828 38.8905C70.3025 39.272 70.3025 39.8895 70.6828 40.2706C71.0635 40.6517 71.6798 40.6517 72.06 40.2706Z" fill="url(#paint5_linear)"/>
<path d="M69.3055 43.0303C69.6862 42.6493 69.6862 42.0317 69.3055 41.6502C68.9253 41.2692 68.309 41.2692 67.9283 41.6502C67.548 42.0317 67.548 42.6493 67.9283 43.0303C68.309 43.4114 68.9253 43.4114 69.3055 43.0303Z" fill="url(#paint6_linear)"/>
<path d="M69.3055 40.2706C69.6862 39.8895 69.6862 39.272 69.3055 38.8905C68.9253 38.5099 68.309 38.5099 67.9283 38.8905C67.548 39.272 67.548 39.8895 67.9283 40.2706C68.309 40.6517 68.9253 40.6517 69.3055 40.2706Z" fill="url(#paint7_linear)"/>
<path d="M72.06 43.0303C72.4399 42.6493 72.4399 42.0317 72.06 41.6502C71.6798 41.2692 71.0635 41.2692 70.6828 41.6502C70.3025 42.0317 70.3025 42.6493 70.6828 43.0303C71.0635 43.4114 71.6798 43.4114 72.06 43.0303Z" fill="url(#paint8_linear)"/>
<path d="M74.8141 40.2706C75.1943 39.8895 75.1943 39.272 74.8141 38.8905C74.4342 38.5099 73.8171 38.5099 73.4372 38.8905C73.057 39.272 73.057 39.8895 73.4372 40.2706C73.8171 40.6517 74.4338 40.6517 74.8141 40.2706Z" fill="url(#paint9_linear)"/>
<path d="M72.06 37.5108C72.4399 37.1301 72.4399 36.5118 72.06 36.1311C71.6798 35.7501 71.0635 35.7501 70.6828 36.1311C70.3025 36.5126 70.3025 37.1301 70.6828 37.5108C71.0635 37.8923 71.6798 37.8923 72.06 37.5108Z" fill="url(#paint10_linear)"/>
<path d="M76.4513 45.8981C76.0698 46.1269 75.7481 46.4385 75.5072 46.8033C74.4399 46.2711 73.0757 46.4023 72.125 47.3546C71.1894 48.2927 71.0395 49.6565 71.5839 50.7433C70.9911 51.1312 70.5499 51.7289 70.3606 52.4378C70.1729 53.1402 70.2521 53.8691 70.5771 54.5118C69.9019 54.9538 69.4351 55.6595 69.2946 56.4594C69.0272 57.9748 69.9909 59.4459 71.488 59.8086C72.7324 60.1101 73.9585 59.5718 74.6199 58.5671C75.4726 58.9977 76.5305 59.0087 77.4308 58.4676C77.8147 58.2364 78.1389 57.9215 78.3807 57.5527C79.4435 58.0869 80.8073 57.9683 81.7632 57.0111C82.694 56.0779 82.8496 54.7161 82.3056 53.6257C82.9296 53.2194 83.3822 52.582 83.5557 51.8219C83.6991 51.1946 83.6215 50.5568 83.3737 49.9974C83.8624 49.8089 84.1179 49.2661 83.9449 48.7668C83.7681 48.2581 83.2132 47.9896 82.7045 48.1659L82.1309 48.3662L82.5152 47.9807C82.8955 47.6 82.8955 46.9821 82.5152 46.601C82.135 46.2203 81.5182 46.2203 81.138 46.601L80.7537 46.9865L80.9531 46.4113C81.1299 45.9022 80.8617 45.346 80.3535 45.1689C79.8583 44.9966 79.3183 45.2493 79.1286 45.734C78.2958 45.368 77.3012 45.3887 76.4513 45.8981ZM78.8946 48.6664C78.8751 48.7379 78.8653 48.8094 78.8625 48.8805L78.5086 49.2356C77.623 50.1229 78.9157 51.5867 79.9623 50.5385C80.3003 50.1985 80.6647 50.1278 81.0206 50.2476C81.9221 50.5515 81.8949 51.8987 80.9259 52.1237C79.9659 52.3472 79.645 53.5501 80.3636 54.2266C80.5546 54.407 80.6667 54.6649 80.6708 54.9351C80.6842 55.7992 79.6019 56.2697 78.9819 55.6075C78.3136 54.8928 77.1078 55.2158 76.8868 56.171C76.715 56.9124 75.7716 57.2061 75.224 56.6191C74.5537 55.9028 73.3511 56.2278 73.1277 57.1866C73.0147 57.6705 72.5097 58.0491 71.9458 57.9122C71.1264 57.7131 70.9139 56.5996 71.657 56.1356C72.0694 55.8776 72.4224 56.0324 72.5666 56.0544C73.7663 56.3127 74.9408 55.7683 75.5685 54.7608C75.6559 54.8075 75.746 54.8502 75.8387 54.8884C77.8891 55.7338 80.1093 53.9747 79.0108 52.8741C78.6305 52.4934 78.0138 52.4934 77.6335 52.8741C77.0384 53.4709 76.0556 53.0606 75.9768 52.2997C75.9094 50.7351 73.9808 50.989 74.0239 52.2156C74.0336 53.0338 74.2189 53.5477 73.707 53.9666C73.4702 54.1612 73.1553 54.2091 72.9469 54.1396C72.7169 54.1396 72.047 53.672 72.242 52.9424C72.335 52.5934 72.6117 52.3253 72.9635 52.2424C73.9191 52.0189 74.2449 50.8127 73.5266 50.1412C73.3341 49.9612 73.2211 49.7032 73.2162 49.4327C73.2016 48.5637 74.2977 48.0981 74.9043 48.7457C75.5726 49.4595 76.7743 49.1369 76.9977 48.1842C77.0571 47.9331 77.222 47.7101 77.4507 47.5732C78.184 47.1336 79.1233 47.8088 78.8946 48.6664Z" fill="url(#paint11_linear)"/>
<path d="M87.8279 78.34C87.8279 78.8783 87.3912 79.315 86.8533 79.315C86.3142 79.315 85.8783 78.8783 85.8783 78.34C85.8783 77.8013 86.3142 77.3649 86.8533 77.3649C87.3912 77.3649 87.8279 77.8013 87.8279 78.34Z" fill="url(#paint12_linear)"/>
<path d="M90.428 81.9801C90.428 82.5192 89.9913 82.9551 89.453 82.9551C88.9147 82.9551 88.4779 82.5192 88.4779 81.9801C88.4779 81.4418 88.9147 81.0051 89.453 81.0051C89.9913 81.0051 90.428 81.4418 90.428 81.9801Z" fill="url(#paint13_linear)"/>
<path d="M85.2274 84.8402C85.2274 85.3793 84.7915 85.8152 84.2524 85.8152C83.7141 85.8152 83.2774 85.3793 83.2774 84.8402C83.2774 84.3019 83.7141 83.8652 84.2524 83.8652C84.7915 83.8652 85.2274 84.3019 85.2274 84.8402Z" fill="url(#paint14_linear)"/>
</g>
</g>
<path d="M25.1169 173.723C23.6696 173.307 22.6149 172.797 21.9528 172.194C21.2966 171.584 20.9684 170.834 20.9684 169.944C20.9684 168.936 21.3698 168.104 22.1725 167.448C22.9811 166.786 24.03 166.455 25.319 166.455C26.1979 166.455 26.9802 166.625 27.6657 166.964C28.3571 167.304 28.8903 167.773 29.2653 168.371C29.6462 168.968 29.8366 169.622 29.8366 170.331H28.1403C28.1403 169.557 27.8942 168.951 27.402 168.511C26.9099 168.066 26.2155 167.843 25.319 167.843C24.487 167.843 23.8366 168.028 23.3679 168.397C22.905 168.76 22.6735 169.267 22.6735 169.917C22.6735 170.439 22.8932 170.881 23.3327 171.245C23.778 171.602 24.5309 171.93 25.5915 172.229C26.6579 172.528 27.4899 172.859 28.0876 173.222C28.6911 173.58 29.1364 173.999 29.4235 174.479C29.7165 174.959 29.863 175.525 29.863 176.175C29.863 177.212 29.4587 178.044 28.6501 178.671C27.8415 179.292 26.7604 179.603 25.4069 179.603C24.528 179.603 23.7077 179.436 22.946 179.102C22.1843 178.762 21.5954 178.299 21.1794 177.713C20.7692 177.127 20.5641 176.462 20.5641 175.718H22.2604C22.2604 176.492 22.5446 177.104 23.113 177.555C23.6872 178 24.4518 178.223 25.4069 178.223C26.2975 178.223 26.9802 178.042 27.4548 177.678C27.9294 177.315 28.1667 176.82 28.1667 176.193C28.1667 175.566 27.947 175.083 27.5075 174.743C27.0681 174.397 26.2712 174.057 25.1169 173.723ZM33.3171 169.917L33.3698 171.113C34.0964 170.199 35.0456 169.742 36.2175 169.742C38.2272 169.742 39.2409 170.875 39.2585 173.143V179.427H37.6325V173.134C37.6266 172.449 37.4684 171.942 37.1579 171.614C36.8532 171.286 36.3757 171.122 35.7253 171.122C35.1979 171.122 34.735 171.262 34.3366 171.543C33.9382 171.825 33.6276 172.194 33.405 172.651V179.427H31.779V169.917H33.3171ZM47.5817 179.427C47.488 179.24 47.4118 178.906 47.3532 178.425C46.5974 179.21 45.695 179.603 44.6462 179.603C43.7087 179.603 42.9382 179.339 42.3347 178.812C41.737 178.279 41.4382 177.605 41.4382 176.791C41.4382 175.8 41.8132 175.033 42.5632 174.488C43.319 173.937 44.3796 173.662 45.7448 173.662H47.3268V172.915C47.3268 172.346 47.1569 171.895 46.8171 171.561C46.4772 171.221 45.9763 171.051 45.3141 171.051C44.7341 171.051 44.2477 171.198 43.8552 171.491C43.4626 171.784 43.2663 172.138 43.2663 172.554H41.6315C41.6315 172.08 41.7985 171.623 42.1325 171.183C42.4724 170.738 42.9294 170.386 43.5036 170.128C44.0837 169.871 44.7194 169.742 45.4108 169.742C46.5065 169.742 47.3649 170.017 47.986 170.568C48.6071 171.113 48.9294 171.866 48.9528 172.827V177.204C48.9528 178.077 49.0641 178.771 49.2868 179.287V179.427H47.5817ZM44.8835 178.188C45.3932 178.188 45.8766 178.056 46.3337 177.792C46.7907 177.529 47.1218 177.186 47.3268 176.764V174.813H46.0524C44.0602 174.813 43.0641 175.396 43.0641 176.562C43.0641 177.072 43.2341 177.47 43.5739 177.757C43.9138 178.044 44.3503 178.188 44.8835 178.188ZM55.3161 178.276C55.8962 178.276 56.403 178.1 56.8366 177.749C57.2702 177.397 57.5104 176.958 57.5573 176.43H59.0954C59.0661 176.975 58.8786 177.494 58.5329 177.986C58.1872 178.478 57.7243 178.871 57.1442 179.164C56.57 179.457 55.9606 179.603 55.3161 179.603C54.0212 179.603 52.9899 179.172 52.2224 178.311C51.4606 177.444 51.0798 176.26 51.0798 174.76V174.488C51.0798 173.562 51.2497 172.739 51.5895 172.018C51.9294 171.297 52.4157 170.738 53.0485 170.339C53.6872 169.941 54.4401 169.742 55.3073 169.742C56.3737 169.742 57.2585 170.061 57.9616 170.7C58.6706 171.338 59.0485 172.167 59.0954 173.187H57.5573C57.5104 172.572 57.2761 172.068 56.8542 171.675C56.4382 171.277 55.9225 171.078 55.3073 171.078C54.4811 171.078 53.8395 171.376 53.3825 171.974C52.9313 172.566 52.7057 173.424 52.7057 174.549V174.857C52.7057 175.953 52.9313 176.796 53.3825 177.388C53.8337 177.98 54.4782 178.276 55.3161 178.276ZM63.5778 175.024L62.5583 176.087V179.427H60.9323V165.927H62.5583V174.092L63.4284 173.046L66.3903 169.917H68.3679L64.6677 173.89L68.7985 179.427H66.8913L63.5778 175.024ZM75.5837 176.905C75.5837 176.465 75.4167 176.125 75.0827 175.885C74.7546 175.639 74.1774 175.428 73.3513 175.252C72.5309 175.077 71.8776 174.866 71.3913 174.62C70.9108 174.374 70.5534 174.081 70.319 173.741C70.0905 173.401 69.9763 172.997 69.9763 172.528C69.9763 171.749 70.3044 171.089 70.9606 170.55C71.6227 170.011 72.4665 169.742 73.4919 169.742C74.57 169.742 75.4431 170.02 76.111 170.577C76.7849 171.133 77.1218 171.845 77.1218 172.712H75.487C75.487 172.267 75.2966 171.883 74.9157 171.561C74.5407 171.239 74.0661 171.078 73.4919 171.078C72.9001 171.078 72.4372 171.207 72.1032 171.464C71.7692 171.722 71.6022 172.059 71.6022 172.475C71.6022 172.868 71.7575 173.164 72.0681 173.363C72.3786 173.562 72.9382 173.752 73.7468 173.934C74.5612 174.116 75.2204 174.333 75.7243 174.584C76.2282 174.836 76.6003 175.141 76.8405 175.499C77.0866 175.85 77.2097 176.281 77.2097 176.791C77.2097 177.64 76.8698 178.323 76.1901 178.838C75.5104 179.348 74.6286 179.603 73.5446 179.603C72.7829 179.603 72.1091 179.468 71.5231 179.199C70.9372 178.929 70.4772 178.554 70.1432 178.074C69.8151 177.587 69.6511 177.063 69.6511 176.5H71.277C71.3063 177.045 71.5231 177.479 71.9274 177.801C72.3376 178.118 72.8766 178.276 73.5446 178.276C74.1599 178.276 74.652 178.153 75.0212 177.907C75.3962 177.655 75.5837 177.321 75.5837 176.905ZM79.2751 181.976L78.3522 181.343C78.903 180.576 79.1901 179.785 79.2136 178.97V177.502H80.8044V178.777C80.8044 179.369 80.6579 179.96 80.3649 180.552C80.0778 181.144 79.7145 181.619 79.2751 181.976ZM88.1257 179.427V171.174H86.6227V169.917H88.1257V168.942C88.1257 167.922 88.3981 167.134 88.9431 166.578C89.488 166.021 90.2585 165.743 91.2546 165.743C91.6296 165.743 92.0016 165.792 92.3708 165.892L92.2829 167.21C92.0075 167.158 91.7145 167.131 91.404 167.131C90.8766 167.131 90.4694 167.287 90.1823 167.597C89.8952 167.902 89.7516 168.341 89.7516 168.916V169.917H91.7819V171.174H89.7516V179.427H88.1257ZM98.1804 171.376C97.9343 171.335 97.6677 171.315 97.3806 171.315C96.3141 171.315 95.5905 171.769 95.2097 172.677V179.427H93.5837V169.917H95.1657L95.1921 171.016C95.7253 170.167 96.4811 169.742 97.4597 169.742C97.7761 169.742 98.0163 169.783 98.1804 169.865V171.376ZM105.554 178.487C104.922 179.231 103.993 179.603 102.768 179.603C101.755 179.603 100.981 179.31 100.448 178.724C99.9206 178.132 99.654 177.259 99.6481 176.105V169.917H101.274V176.061C101.274 177.502 101.86 178.223 103.032 178.223C104.274 178.223 105.1 177.76 105.51 176.834V169.917H107.136V179.427H105.59L105.554 178.487ZM111.821 167.615V169.917H113.596V171.174H111.821V177.072C111.821 177.453 111.9 177.74 112.058 177.933C112.216 178.121 112.486 178.214 112.867 178.214C113.054 178.214 113.312 178.179 113.64 178.109V179.427C113.213 179.544 112.797 179.603 112.392 179.603C111.666 179.603 111.118 179.383 110.749 178.944C110.38 178.504 110.195 177.88 110.195 177.072V171.174H108.464V169.917H110.195V167.615H111.821ZM121.375 179.427C121.281 179.24 121.205 178.906 121.146 178.425C120.39 179.21 119.488 179.603 118.439 179.603C117.502 179.603 116.731 179.339 116.128 178.812C115.53 178.279 115.231 177.605 115.231 176.791C115.231 175.8 115.606 175.033 116.356 174.488C117.112 173.937 118.173 173.662 119.538 173.662H121.12V172.915C121.12 172.346 120.95 171.895 120.61 171.561C120.27 171.221 119.769 171.051 119.107 171.051C118.527 171.051 118.041 171.198 117.648 171.491C117.256 171.784 117.059 172.138 117.059 172.554H115.424C115.424 172.08 115.591 171.623 115.925 171.183C116.265 170.738 116.722 170.386 117.297 170.128C117.877 169.871 118.512 169.742 119.204 169.742C120.299 169.742 121.158 170.017 121.779 170.568C122.4 171.113 122.722 171.866 122.746 172.827V177.204C122.746 178.077 122.857 178.771 123.08 179.287V179.427H121.375ZM118.676 178.188C119.186 178.188 119.67 178.056 120.127 177.792C120.584 177.529 120.915 177.186 121.12 176.764V174.813H119.845C117.853 174.813 116.857 175.396 116.857 176.562C116.857 177.072 117.027 177.47 117.367 177.757C117.707 178.044 118.143 178.188 118.676 178.188ZM130.832 176.905C130.832 176.465 130.665 176.125 130.331 175.885C130.003 175.639 129.425 175.428 128.599 175.252C127.779 175.077 127.126 174.866 126.639 174.62C126.159 174.374 125.801 174.081 125.567 173.741C125.339 173.401 125.224 172.997 125.224 172.528C125.224 171.749 125.552 171.089 126.209 170.55C126.871 170.011 127.715 169.742 128.74 169.742C129.818 169.742 130.691 170.02 131.359 170.577C132.033 171.133 132.37 171.845 132.37 172.712H130.735C130.735 172.267 130.545 171.883 130.164 171.561C129.789 171.239 129.314 171.078 128.74 171.078C128.148 171.078 127.685 171.207 127.351 171.464C127.017 171.722 126.85 172.059 126.85 172.475C126.85 172.868 127.006 173.164 127.316 173.363C127.627 173.562 128.186 173.752 128.995 173.934C129.809 174.116 130.468 174.333 130.972 174.584C131.476 174.836 131.848 175.141 132.089 175.499C132.335 175.85 132.458 176.281 132.458 176.791C132.458 177.64 132.118 178.323 131.438 178.838C130.758 179.348 129.877 179.603 128.793 179.603C128.031 179.603 127.357 179.468 126.771 179.199C126.185 178.929 125.725 178.554 125.391 178.074C125.063 177.587 124.899 177.063 124.899 176.5H126.525C126.554 177.045 126.771 177.479 127.175 177.801C127.586 178.118 128.125 178.276 128.793 178.276C129.408 178.276 129.9 178.153 130.269 177.907C130.644 177.655 130.832 177.321 130.832 176.905ZM17.9362 197.045L20.1511 189.917H21.8913L18.0681 200.895C17.4763 202.477 16.5358 203.268 15.2468 203.268L14.9391 203.242L14.3327 203.127V201.809L14.7722 201.844C15.3229 201.844 15.7507 201.733 16.0554 201.51C16.3659 201.288 16.6208 200.88 16.82 200.289L17.1804 199.322L13.7878 189.917H15.5632L17.9362 197.045ZM35.8659 194.778C35.8659 196.231 35.5319 197.4 34.864 198.285C34.196 199.164 33.2995 199.603 32.1745 199.603C30.9733 199.603 30.0446 199.178 29.3884 198.329L29.3093 199.427H27.8151V185.927H29.4411V190.963C30.0974 190.149 31.0026 189.742 32.1569 189.742C33.3112 189.742 34.2165 190.178 34.8727 191.051C35.5349 191.924 35.8659 193.12 35.8659 194.637V194.778ZM34.2399 194.593C34.2399 193.486 34.0261 192.63 33.5983 192.027C33.1706 191.423 32.5554 191.122 31.7526 191.122C30.6804 191.122 29.9099 191.62 29.4411 192.616V196.729C29.9391 197.725 30.7155 198.223 31.7702 198.223C32.5495 198.223 33.1559 197.921 33.5895 197.318C34.0231 196.714 34.2399 195.806 34.2399 194.593ZM41.8688 199.603C40.5798 199.603 39.5309 199.181 38.7224 198.337C37.9138 197.488 37.5095 196.354 37.5095 194.936V194.637C37.5095 193.694 37.6882 192.853 38.0456 192.115C38.4089 191.371 38.9128 190.791 39.5573 190.375C40.2077 189.953 40.9108 189.742 41.6667 189.742C42.903 189.742 43.864 190.149 44.5495 190.963C45.235 191.778 45.5778 192.944 45.5778 194.461V195.138H39.1354C39.1589 196.076 39.4313 196.834 39.9528 197.415C40.4802 197.989 41.1481 198.276 41.9567 198.276C42.5309 198.276 43.0173 198.159 43.4157 197.924C43.8141 197.69 44.1628 197.379 44.4616 196.993L45.4548 197.766C44.6579 198.991 43.4626 199.603 41.8688 199.603ZM41.6667 191.078C41.0104 191.078 40.4597 191.318 40.0143 191.798C39.569 192.273 39.2936 192.941 39.1882 193.802H43.9518V193.679C43.905 192.853 43.6823 192.214 43.2839 191.763C42.8854 191.306 42.3464 191.078 41.6667 191.078ZM55.5182 194.778C55.5182 196.231 55.1843 197.4 54.5163 198.285C53.8483 199.164 52.9518 199.603 51.8268 199.603C50.6257 199.603 49.697 199.178 49.0407 198.329L48.9616 199.427H47.4675V185.927H49.0934V190.963C49.7497 190.149 50.655 189.742 51.8093 189.742C52.9636 189.742 53.8688 190.178 54.5251 191.051C55.1872 191.924 55.5182 193.12 55.5182 194.637V194.778ZM53.8923 194.593C53.8923 193.486 53.6784 192.63 53.2507 192.027C52.8229 191.423 52.2077 191.122 51.405 191.122C50.3327 191.122 49.5622 191.62 49.0934 192.616V196.729C49.5915 197.725 50.3679 198.223 51.4225 198.223C52.2018 198.223 52.8083 197.921 53.2419 197.318C53.6755 196.714 53.8923 195.806 53.8923 194.593ZM59.3415 199.427H57.7155V189.917H59.3415V199.427ZM57.5837 187.395C57.5837 187.131 57.6628 186.909 57.821 186.727C57.985 186.545 58.2253 186.455 58.5417 186.455C58.8581 186.455 59.0983 186.545 59.2624 186.727C59.4265 186.909 59.5085 187.131 59.5085 187.395C59.5085 187.659 59.4265 187.878 59.2624 188.054C59.0983 188.23 58.8581 188.318 58.5417 188.318C58.2253 188.318 57.985 188.23 57.821 188.054C57.6628 187.878 57.5837 187.659 57.5837 187.395ZM61.5563 194.593C61.5563 193.134 61.902 191.962 62.5934 191.078C63.2849 190.187 64.1901 189.742 65.3093 189.742C66.4225 189.742 67.3044 190.123 67.9548 190.884V185.927H69.5807V199.427H68.0866L68.0075 198.408C67.3571 199.205 66.4518 199.603 65.2917 199.603C64.1901 199.603 63.2907 199.152 62.5934 198.25C61.902 197.347 61.5563 196.169 61.5563 194.716V194.593ZM63.1823 194.778C63.1823 195.856 63.405 196.7 63.8503 197.309C64.2956 197.918 64.9108 198.223 65.696 198.223C66.7272 198.223 67.4802 197.76 67.9548 196.834V192.466C67.4684 191.57 66.7214 191.122 65.7136 191.122C64.9167 191.122 64.2956 191.429 63.8503 192.044C63.405 192.66 63.1823 193.571 63.1823 194.778ZM77.9831 199.427C77.8893 199.24 77.8132 198.906 77.7546 198.425C76.9987 199.21 76.0964 199.603 75.0475 199.603C74.11 199.603 73.3395 199.339 72.736 198.812C72.1384 198.279 71.8395 197.605 71.8395 196.791C71.8395 195.8 72.2145 195.033 72.9645 194.488C73.7204 193.937 74.7809 193.662 76.1462 193.662H77.7282V192.915C77.7282 192.346 77.5583 191.895 77.2184 191.561C76.8786 191.221 76.3776 191.051 75.7155 191.051C75.1354 191.051 74.6491 191.198 74.2565 191.491C73.864 191.784 73.6677 192.138 73.6677 192.554H72.0329C72.0329 192.08 72.1999 191.623 72.5339 191.183C72.8737 190.738 73.3307 190.386 73.905 190.128C74.485 189.871 75.1208 189.742 75.8122 189.742C76.9079 189.742 77.7663 190.017 78.3874 190.568C79.0085 191.113 79.3307 191.866 79.3542 192.827V197.204C79.3542 198.077 79.4655 198.771 79.6882 199.287V199.427H77.9831ZM75.2849 198.188C75.7946 198.188 76.278 198.056 76.735 197.792C77.1921 197.529 77.5231 197.186 77.7282 196.764V194.813H76.4538C74.4616 194.813 73.4655 195.396 73.4655 196.562C73.4655 197.072 73.6354 197.47 73.9753 197.757C74.3151 198.044 74.7516 198.188 75.2849 198.188ZM87.4401 196.905C87.4401 196.465 87.2731 196.125 86.9391 195.885C86.611 195.639 86.0339 195.428 85.2077 195.252C84.3874 195.077 83.7341 194.866 83.2477 194.62C82.7673 194.374 82.4099 194.081 82.1755 193.741C81.947 193.401 81.8327 192.997 81.8327 192.528C81.8327 191.749 82.1608 191.089 82.8171 190.55C83.4792 190.011 84.3229 189.742 85.3483 189.742C86.4265 189.742 87.2995 190.02 87.9675 190.577C88.6413 191.133 88.9782 191.845 88.9782 192.712H87.3434C87.3434 192.267 87.153 191.883 86.7722 191.561C86.3972 191.239 85.9225 191.078 85.3483 191.078C84.7565 191.078 84.2936 191.207 83.9597 191.464C83.6257 191.722 83.4587 192.059 83.4587 192.475C83.4587 192.868 83.614 193.164 83.9245 193.363C84.235 193.562 84.7946 193.752 85.6032 193.934C86.4177 194.116 87.0768 194.333 87.5807 194.584C88.0847 194.836 88.4567 195.141 88.697 195.499C88.9431 195.85 89.0661 196.281 89.0661 196.791C89.0661 197.64 88.7263 198.323 88.0466 198.838C87.3669 199.348 86.485 199.603 85.4011 199.603C84.6393 199.603 83.9655 199.468 83.3796 199.199C82.7936 198.929 82.3337 198.554 81.9997 198.074C81.6716 197.587 81.5075 197.063 81.5075 196.5H83.1335C83.1628 197.045 83.3796 197.479 83.7839 197.801C84.194 198.118 84.7331 198.276 85.4011 198.276C86.0163 198.276 86.5085 198.153 86.8776 197.907C87.2526 197.655 87.4401 197.321 87.4401 196.905ZM95.2624 194.593C95.2624 193.111 95.6052 191.933 96.2907 191.06C96.9763 190.181 97.8845 189.742 99.0153 189.742C100.175 189.742 101.081 190.152 101.731 190.972L101.81 189.917H103.296V199.199C103.296 200.429 102.929 201.399 102.197 202.108C101.47 202.817 100.492 203.171 99.2614 203.171C98.5759 203.171 97.905 203.025 97.2487 202.732C96.5925 202.439 96.0915 202.038 95.7458 201.528L96.5895 200.552C97.2868 201.414 98.1393 201.844 99.1472 201.844C99.9382 201.844 100.553 201.622 100.993 201.176C101.438 200.731 101.661 200.104 101.661 199.295V198.478C101.01 199.228 100.123 199.603 98.9977 199.603C97.8845 199.603 96.9821 199.155 96.2907 198.258C95.6052 197.362 95.2624 196.14 95.2624 194.593ZM96.8972 194.778C96.8972 195.85 97.1169 196.694 97.5563 197.309C97.9958 197.918 98.611 198.223 99.402 198.223C100.427 198.223 101.18 197.757 101.661 196.826V192.484C101.163 191.576 100.416 191.122 99.4196 191.122C98.6286 191.122 98.0104 191.429 97.5651 192.044C97.1198 192.66 96.8972 193.571 96.8972 194.778ZM110.353 191.376C110.107 191.335 109.841 191.315 109.553 191.315C108.487 191.315 107.763 191.769 107.383 192.677V199.427H105.757V189.917H107.339L107.365 191.016C107.898 190.167 108.654 189.742 109.633 189.742C109.949 189.742 110.189 189.783 110.353 189.865V191.376ZM117.376 199.427C117.282 199.24 117.206 198.906 117.147 198.425C116.391 199.21 115.489 199.603 114.44 199.603C113.503 199.603 112.732 199.339 112.129 198.812C111.531 198.279 111.232 197.605 111.232 196.791C111.232 195.8 111.607 195.033 112.357 194.488C113.113 193.937 114.174 193.662 115.539 193.662H117.121V192.915C117.121 192.346 116.951 191.895 116.611 191.561C116.271 191.221 115.77 191.051 115.108 191.051C114.528 191.051 114.042 191.198 113.649 191.491C113.257 191.784 113.06 192.138 113.06 192.554H111.425C111.425 192.08 111.592 191.623 111.926 191.183C112.266 190.738 112.723 190.386 113.298 190.128C113.878 189.871 114.513 189.742 115.205 189.742C116.3 189.742 117.159 190.017 117.78 190.568C118.401 191.113 118.723 191.866 118.747 192.827V197.204C118.747 198.077 118.858 198.771 119.081 199.287V199.427H117.376ZM114.677 198.188C115.187 198.188 115.671 198.056 116.128 197.792C116.585 197.529 116.916 197.186 117.121 196.764V194.813H115.846C113.854 194.813 112.858 195.396 112.858 196.562C112.858 197.072 113.028 197.47 113.368 197.757C113.708 198.044 114.144 198.188 114.677 198.188ZM123.502 187.615V189.917H125.277V191.174H123.502V197.072C123.502 197.453 123.581 197.74 123.739 197.933C123.897 198.121 124.167 198.214 124.548 198.214C124.735 198.214 124.993 198.179 125.321 198.109V199.427C124.893 199.544 124.477 199.603 124.073 199.603C123.346 199.603 122.799 199.383 122.429 198.944C122.06 198.504 121.876 197.88 121.876 197.072V191.174H120.144V189.917H121.876V187.615H123.502ZM128.951 199.427H127.325V189.917H128.951V199.427ZM127.193 187.395C127.193 187.131 127.272 186.909 127.43 186.727C127.594 186.545 127.835 186.455 128.151 186.455C128.467 186.455 128.708 186.545 128.872 186.727C129.036 186.909 129.118 187.131 129.118 187.395C129.118 187.659 129.036 187.878 128.872 188.054C128.708 188.23 128.467 188.318 128.151 188.318C127.835 188.318 127.594 188.23 127.43 188.054C127.272 187.878 127.193 187.659 127.193 187.395ZM137.098 196.905C137.098 196.465 136.931 196.125 136.597 195.885C136.269 195.639 135.692 195.428 134.866 195.252C134.046 195.077 133.392 194.866 132.906 194.62C132.425 194.374 132.068 194.081 131.834 193.741C131.605 193.401 131.491 192.997 131.491 192.528C131.491 191.749 131.819 191.089 132.475 190.55C133.137 190.011 133.981 189.742 135.007 189.742C136.085 189.742 136.958 190.02 137.626 190.577C138.299 191.133 138.636 191.845 138.636 192.712H137.002C137.002 192.267 136.811 191.883 136.43 191.561C136.055 191.239 135.581 191.078 135.007 191.078C134.415 191.078 133.952 191.207 133.618 191.464C133.284 191.722 133.117 192.059 133.117 192.475C133.117 192.868 133.272 193.164 133.583 193.363C133.893 193.562 134.453 193.752 135.261 193.934C136.076 194.116 136.735 194.333 137.239 194.584C137.743 194.836 138.115 195.141 138.355 195.499C138.601 195.85 138.724 196.281 138.724 196.791C138.724 197.64 138.384 198.323 137.705 198.838C137.025 199.348 136.143 199.603 135.059 199.603C134.298 199.603 133.624 199.468 133.038 199.199C132.452 198.929 131.992 198.554 131.658 198.074C131.33 197.587 131.166 197.063 131.166 196.5H132.792C132.821 197.045 133.038 197.479 133.442 197.801C133.852 198.118 134.391 198.276 135.059 198.276C135.674 198.276 136.167 198.153 136.536 197.907C136.911 197.655 137.098 197.321 137.098 196.905Z" fill="#FAFEFF"/>
<defs>
<filter id="filter0_d" x="0.510853" y="-10.1717" width="152.185" height="151.771" filterUnits="userSpaceOnUse" color-interpolation-filters="sRGB">
<feFlood flood-opacity="0" result="BackgroundImageFix"/>
<feColorMatrix in="SourceAlpha" type="matrix" values="0 0 0 0 0 0 0 0 0 0 0 0 0 0 0 0 0 0 127 0" result="hardAlpha"/>
<feMorphology radius="2.9062" operator="dilate" in="SourceAlpha" result="effect1_dropShadow"/>
<feOffset/>
<feGaussianBlur stdDeviation="3.63275"/>
<feColorMatrix type="matrix" values="0 0 0 0 0 0 0 0 0 1 0 0 0 0 0.407843 0 0 0 1 0"/>
<feBlend mode="normal" in2="BackgroundImageFix" result="effect1_dropShadow"/>
<feBlend mode="normal" in="SourceGraphic" in2="effect1_dropShadow" result="shape"/>
</filter>
<linearGradient id="paint0_linear" x1="10.6828" y1="65.7179" x2="142.523" y2="65.7179" gradientUnits="userSpaceOnUse">
<stop stop-color="#8FFF70"/>
<stop offset="1" stop-color="#8FFFFF"/>
</linearGradient>
<linearGradient id="paint1_linear" x1="40.2874" y1="66.1186" x2="106.85" y2="66.1186" gradientUnits="userSpaceOnUse">
<stop stop-color="#8FFF73"/>
<stop offset="1" stop-color="#8FFFF9"/>
</linearGradient>
<linearGradient id="paint2_linear" x1="51.2556" y1="52.3866" x2="66.187" y2="52.3866" gradientUnits="userSpaceOnUse">
<stop stop-color="#8FFF73"/>
<stop offset="1" stop-color="#8FFFF9"/>
</linearGradient>
<linearGradient id="paint3_linear" x1="56.4797" y1="50.0128" x2="60.3743" y2="50.0128" gradientUnits="userSpaceOnUse">
<stop stop-color="#8FFF73"/>
<stop offset="1" stop-color="#8FFFF9"/>
</linearGradient>
<linearGradient id="paint4_linear" x1="64.5351" y1="39.4672" x2="78.6846" y2="39.4672" gradientUnits="userSpaceOnUse">
<stop stop-color="#8FFF73"/>
<stop offset="1" stop-color="#8FFFF9"/>
</linearGradient>
<linearGradient id="paint5_linear" x1="70.3976" y1="39.5979" x2="72.3449" y2="39.5979" gradientUnits="userSpaceOnUse">
<stop stop-color="#8FFF73"/>
<stop offset="1" stop-color="#8FFFF9"/>
</linearGradient>
<linearGradient id="paint6_linear" x1="67.6431" y1="42.3574" x2="69.591" y2="42.3574" gradientUnits="userSpaceOnUse">
<stop stop-color="#8FFF73"/>
<stop offset="1" stop-color="#8FFFF9"/>
</linearGradient>
<linearGradient id="paint7_linear" x1="67.6431" y1="39.5979" x2="69.591" y2="39.5979" gradientUnits="userSpaceOnUse">
<stop stop-color="#8FFF73"/>
<stop offset="1" stop-color="#8FFFF9"/>
</linearGradient>
<linearGradient id="paint8_linear" x1="70.3976" y1="42.3574" x2="72.3449" y2="42.3574" gradientUnits="userSpaceOnUse">
<stop stop-color="#8FFF73"/>
<stop offset="1" stop-color="#8FFFF9"/>
</linearGradient>
<linearGradient id="paint9_linear" x1="73.152" y1="39.5979" x2="75.0993" y2="39.5979" gradientUnits="userSpaceOnUse">
<stop stop-color="#8FFF73"/>
<stop offset="1" stop-color="#8FFFF9"/>
</linearGradient>
<linearGradient id="paint10_linear" x1="70.3976" y1="36.8383" x2="72.3449" y2="36.8383" gradientUnits="userSpaceOnUse">
<stop stop-color="#8FFF73"/>
<stop offset="1" stop-color="#8FFFF9"/>
</linearGradient>
<linearGradient id="paint11_linear" x1="69.2501" y1="52.6331" x2="83.999" y2="52.6331" gradientUnits="userSpaceOnUse">
<stop stop-color="#8FFF73"/>
<stop offset="1" stop-color="#8FFFF9"/>
</linearGradient>
<linearGradient id="paint12_linear" x1="85.8783" y1="78.3571" x2="87.8279" y2="78.3571" gradientUnits="userSpaceOnUse">
<stop stop-color="#8FFF73"/>
<stop offset="1" stop-color="#8FFFF9"/>
</linearGradient>
<linearGradient id="paint13_linear" x1="88.4779" y1="81.9972" x2="90.428" y2="81.9972" gradientUnits="userSpaceOnUse">
<stop stop-color="#8FFF73"/>
<stop offset="1" stop-color="#8FFFF9"/>
</linearGradient>
<linearGradient id="paint14_linear" x1="83.2774" y1="84.8573" x2="85.2274" y2="84.8573" gradientUnits="userSpaceOnUse">
<stop stop-color="#8FFF73"/>
<stop offset="1" stop-color="#8FFFF9"/>
</linearGradient>
<clipPath id="clip0">
<rect width="131.841" height="131.427" fill="white" transform="translate(10.6826)"/>
</clipPath>
</defs>
</svg>
