<svg width="153" height="204" viewBox="0 0 153 204" fill="none" xmlns="http://www.w3.org/2000/svg">
<g filter="url(#filter0_d)">
<g clip-path="url(#clip0)">
<path d="M78.4843 131.427C77.7503 131.427 77.0162 131.409 76.2634 131.371C67.7563 130.9 59.8326 127.795 55.0897 123.052L17.8618 85.8052C13.1565 81.0999 10.5968 73.4209 10.8603 64.7633C11.1238 56.3691 14.0599 48.5584 18.7463 43.8907L33.822 28.8151C34.2549 28.3822 34.9513 28.3822 35.3841 28.8151C35.817 29.248 35.817 29.9444 35.3841 30.3772L20.3085 45.4529C16.0173 49.7441 13.3259 56.9902 13.0812 64.8197C12.8365 72.7622 15.208 80.0083 19.4239 84.2242L56.6707 121.471C61.0372 125.838 68.415 128.717 76.3951 129.15C84.4694 129.583 91.7531 127.381 95.8937 123.24L111.421 107.713C111.854 107.28 112.55 107.28 112.983 107.713C113.416 108.146 113.416 108.842 112.983 109.275L97.4559 124.802C93.2211 129.075 86.3891 131.427 78.4843 131.427ZM126.835 94.557C126.553 94.557 126.271 94.444 126.045 94.237C125.612 93.8041 125.612 93.1077 126.045 92.6749L133.592 85.1276C137.771 80.9493 140.349 74.0797 140.462 66.7771C140.594 59.2675 138.203 52.5108 133.931 48.2196L94.915 9.20359C90.6427 4.93122 83.5283 2.31509 75.887 2.22099C68.2645 2.12688 61.2442 4.51715 57.1036 8.65778L47.3543 18.4071C46.9214 18.84 46.225 18.84 45.7922 18.4071C45.3593 17.9742 45.3593 17.2778 45.7922 16.8449L55.5415 7.09564C60.0773 2.54095 67.6998 -0.112819 75.9058 0.000107385C84.2435 0.113034 91.7343 2.89855 96.4772 7.62262L135.493 46.6386C140.198 51.3439 142.815 58.6841 142.683 66.7959C142.551 74.6631 139.728 82.0974 135.154 86.6898L127.607 94.237C127.4 94.444 127.118 94.557 126.835 94.557Z" fill="url(#paint0_linear)"/>
</g>
<path d="M106.62 83.3157C106.84 83.0906 107.049 82.854 107.234 82.5986C108.344 81.0587 108.763 79.1942 108.403 77.2826L107.251 72.7287C106.336 69.1086 103.686 66.303 100.325 65.099C102.125 63.7611 103.298 61.6266 103.298 59.2188C103.298 55.1789 100.01 51.8906 95.97 51.8906C91.9301 51.8906 88.6419 55.1789 88.6419 59.2188C88.6419 61.2685 89.4909 63.1225 90.8518 64.4531L82.884 64.4542C80.8636 64.4542 79.22 66.0967 79.22 68.1172C79.22 68.6815 79.3592 69.2101 79.5885 69.6875H77.1262V56.9355L80.0219 56.3566C84.4093 55.4793 87.595 51.5944 87.595 47.1179V36.7109C87.595 34.6905 85.9514 33.0469 83.9309 33.0469C81.9104 33.0469 80.2669 34.6905 80.2669 36.7109V45.6094C80.2669 47.3409 78.8578 48.75 77.1262 48.75H73.8694C75.2314 47.4184 76.0794 45.5654 76.0794 43.5156C76.0794 39.4757 72.7911 36.1875 68.7512 36.1875C64.7113 36.1875 61.4231 39.4757 61.4231 43.5156C61.4231 45.7371 62.4208 47.7272 63.9869 49.0724C61.8806 49.5749 59.9533 50.6689 58.4207 52.2413C57.7161 52.0152 56.9676 51.8906 56.1887 51.8906C52.1488 51.8906 48.8606 55.1789 48.8606 59.2188C48.8606 61.6266 50.0342 63.7611 51.8327 65.098C48.4712 66.303 45.8226 69.1075 44.9066 72.7276L43.7424 77.3433C43.3959 79.1931 43.8157 81.0587 44.9244 82.5976C45.1097 82.854 45.318 83.0906 45.5389 83.3147C44.47 83.4089 43.6262 84.2987 43.6262 85.3906V87.4844C43.6262 88.6391 44.5653 89.5781 45.72 89.5781H49.9075V95.8594H47.8137V97.9531H58.2825V95.8594H56.1887V89.5781H57.044L58.3746 94.6429C58.786 96.5608 60.5081 97.9531 62.4689 97.9531C62.7589 97.9531 63.052 97.9228 63.3441 97.861C64.4402 97.6255 65.3782 96.9795 65.9864 96.0394C66.5936 95.1014 66.7988 93.9802 66.5517 92.8391L64.1324 83.6361C63.6111 81.2063 62.023 79.2078 59.9365 78.0625H71.8919V97.9531H80.2669V78.0625H92.218C90.1336 79.2036 88.5508 81.1906 88.0368 83.59L85.5954 92.8842C85.3589 93.9802 85.5651 95.1004 86.1723 96.0394C86.7805 96.9795 87.7196 97.6265 88.8198 97.862C89.1067 97.9228 89.3998 97.9531 89.6898 97.9531C91.6506 97.9531 93.3727 96.5608 93.7715 94.689L95.1147 89.5781H97.0169V95.8594H94.9231V97.9531H105.392V95.8594H103.298V89.5781H106.439C107.593 89.5781 108.532 88.6391 108.532 87.4844V85.3906C108.532 84.2987 107.689 83.4089 106.62 83.3157ZM90.7356 59.2188C90.7356 56.3325 93.0837 53.9844 95.97 53.9844C98.8562 53.9844 101.204 56.3325 101.204 59.2188C101.204 62.105 98.8562 64.4531 95.97 64.4531C93.0837 64.4531 90.7356 62.105 90.7356 59.2188ZM82.8924 71.7812H84.469H93.1078L94.4237 75.9688H57.735L59.0509 71.7812H67.7064H69.2663H82.8924ZM69.7667 59.8636L68.7512 60.8791L67.7358 59.8636L68.3796 50.8438H69.1239L69.7667 59.8636ZM63.5169 43.5156C63.5169 40.6294 65.865 38.2812 68.7512 38.2812C71.6375 38.2812 73.9856 40.6294 73.9856 43.5156C73.9856 46.4019 71.6375 48.75 68.7512 48.75C65.865 48.75 63.5169 46.4019 63.5169 43.5156ZM66.2796 50.8647L65.5792 60.6676L68.7512 63.8397L71.9233 60.6676L71.2219 50.8438H77.1262C80.0125 50.8438 82.3606 48.4956 82.3606 45.6094V36.7109C82.3606 35.8452 83.0652 35.1406 83.9309 35.1406C84.7967 35.1406 85.5012 35.8452 85.5012 36.7109V47.1179C85.5012 50.5988 83.0243 53.6211 79.6105 54.3037L75.0325 55.2207V69.6875H72.5702C72.7995 69.2101 72.9387 68.6815 72.9387 68.1172C72.9387 66.0967 71.2951 64.4542 69.2747 64.4542L61.3069 64.4531C62.6678 63.1225 63.5169 61.2685 63.5169 59.2188C63.5169 56.7471 62.2826 54.5612 60.4024 53.2338C62.024 51.7912 64.0937 50.9526 66.2796 50.8647ZM50.9544 59.2188C50.9544 56.3325 53.3025 53.9844 56.1887 53.9844C59.075 53.9844 61.4231 56.3325 61.4231 59.2188C61.4231 62.105 59.075 64.4531 56.1887 64.4531C53.3025 64.4531 50.9544 62.105 50.9544 59.2188ZM54.095 95.8594H52.0012V89.5781H54.095V95.8594ZM45.72 87.4844V85.3906H50.6392L55.9563 85.4388L56.4944 87.4844H45.72ZM62.0983 84.1218L64.5177 93.3259C64.6349 93.8724 64.5334 94.4335 64.2298 94.9025C63.9262 95.3726 63.4561 95.6971 62.9107 95.8133C61.7832 96.0499 60.6631 95.3129 60.4118 94.1572L57.9925 84.9509C57.7842 83.993 56.9236 83.2969 55.9448 83.2969H52.0054H50.6392C48.9936 83.2969 47.4913 82.5777 46.6234 81.3727C45.8529 80.3039 45.5598 79.0099 45.7859 77.7935L46.9375 73.2406C47.9331 69.3002 51.4684 66.5469 55.5344 66.5469L69.2747 66.5479C70.1404 66.5479 70.845 67.2525 70.845 68.1172C70.845 68.983 70.1362 69.6875 69.2663 69.6875H67.7064H57.5141L54.5556 79.1052L55.9741 79.1125C58.9012 79.1272 61.4723 81.2146 62.0983 84.1218ZM78.1731 95.8594H73.9856V78.0625H78.1731V95.8594ZM91.7364 94.2032C91.4988 95.3066 90.342 96.0426 89.2543 95.8144C88.7047 95.6971 88.2336 95.3726 87.93 94.9025C87.6264 94.4335 87.5238 93.8735 87.6306 93.371L90.0719 84.0757C90.6864 81.2146 93.2575 79.1261 96.1846 79.1125L97.6031 79.1052L94.6446 69.6875H84.468H82.8914C82.0225 69.6875 81.3137 68.983 81.3137 68.1172C81.3137 67.2525 82.0183 66.5479 82.884 66.5479L94.9231 66.5469H96.6243C100.69 66.5469 104.226 69.3002 105.221 73.2416L106.359 77.7317C106.599 79.011 106.306 80.3039 105.535 81.3738C104.667 82.5777 103.165 83.2969 101.519 83.2969H99.1106H96.2139C95.234 83.2969 94.3735 83.993 94.1777 84.907L91.7364 94.2032ZM101.204 95.8594H99.1106V89.5781H101.204V95.8594ZM106.439 87.4844H95.6643L96.2139 85.3906H99.1106H101.519H106.439V87.4844Z" fill="url(#paint1_linear)"/>
<path d="M93.8762 41.4219H95.97V43.5156H93.8762V41.4219Z" fill="url(#paint2_linear)"/>
<path d="M98.0637 41.4219H100.157V43.5156H98.0637V41.4219Z" fill="url(#paint3_linear)"/>
<path d="M102.251 41.4219H104.345V43.5156H102.251V41.4219Z" fill="url(#paint4_linear)"/>
<path d="M105.392 37.2344H92.8294C91.0978 37.2344 89.6887 38.6435 89.6887 40.375V44.5625C89.6887 46.294 91.0978 47.7031 92.8294 47.7031H95.97V51.6467L102.541 47.7031H105.392C107.123 47.7031 108.532 46.294 108.532 44.5625V40.375C108.532 38.6435 107.123 37.2344 105.392 37.2344ZM106.439 44.5625C106.439 45.1404 105.97 45.6094 105.392 45.6094H101.961L98.0637 47.947V45.6094H92.8294C92.2515 45.6094 91.7825 45.1404 91.7825 44.5625V40.375C91.7825 39.7971 92.2515 39.3281 92.8294 39.3281H105.392C105.97 39.3281 106.439 39.7971 106.439 40.375V44.5625Z" fill="url(#paint5_linear)"/>
</g>
<path d="M25.8029 175.367C25.6447 176.72 25.1438 177.766 24.3 178.504C23.4621 179.237 22.3459 179.603 20.9514 179.603C19.4397 179.603 18.2268 179.061 17.3127 177.977C16.4045 176.893 15.9504 175.443 15.9504 173.626V172.396C15.9504 171.207 16.1613 170.161 16.5832 169.258C17.0109 168.356 17.6145 167.665 18.3938 167.184C19.173 166.698 20.0754 166.455 21.1008 166.455C22.4602 166.455 23.55 166.835 24.3703 167.597C25.1906 168.353 25.6682 169.402 25.8029 170.744H24.1066C23.9602 169.724 23.6408 168.986 23.1486 168.529C22.6623 168.072 21.9797 167.843 21.1008 167.843C20.0227 167.843 19.176 168.242 18.5607 169.039C17.9514 169.835 17.6467 170.969 17.6467 172.44V173.679C17.6467 175.068 17.9367 176.172 18.5168 176.993C19.0969 177.813 19.9084 178.223 20.9514 178.223C21.8889 178.223 22.6066 178.012 23.1047 177.59C23.6086 177.163 23.9426 176.421 24.1066 175.367H25.8029ZM33.7307 179.427C33.6369 179.24 33.5607 178.906 33.5022 178.425C32.7463 179.21 31.8439 179.603 30.7951 179.603C29.8576 179.603 29.0871 179.339 28.4836 178.812C27.8859 178.279 27.5871 177.605 27.5871 176.791C27.5871 175.8 27.9621 175.033 28.7121 174.488C29.468 173.937 30.5285 173.662 31.8938 173.662H33.4758V172.915C33.4758 172.346 33.3059 171.895 32.966 171.561C32.6262 171.221 32.1252 171.051 31.4631 171.051C30.883 171.051 30.3967 171.198 30.0041 171.491C29.6115 171.784 29.4152 172.138 29.4152 172.554H27.7805C27.7805 172.08 27.9475 171.623 28.2814 171.183C28.6213 170.738 29.0783 170.386 29.6525 170.128C30.2326 169.871 30.8684 169.742 31.5598 169.742C32.6555 169.742 33.5139 170.017 34.135 170.568C34.7561 171.113 35.0783 171.866 35.1018 172.827V177.204C35.1018 178.077 35.2131 178.771 35.4357 179.287V179.427H33.7307ZM31.0324 178.188C31.5422 178.188 32.0256 178.056 32.4826 177.792C32.9397 177.529 33.2707 177.186 33.4758 176.764V174.813H32.2014C30.2092 174.813 29.2131 175.396 29.2131 176.562C29.2131 177.072 29.383 177.47 29.7229 177.757C30.0627 178.044 30.4992 178.188 31.0324 178.188ZM45.6838 174.778C45.6838 176.225 45.3527 177.391 44.6906 178.276C44.0285 179.161 43.132 179.603 42.0012 179.603C40.8469 179.603 39.9387 179.237 39.2766 178.504V183.083H37.6506V169.917H39.1359L39.215 170.972C39.8772 170.152 40.7971 169.742 41.9748 169.742C43.1174 169.742 44.0197 170.172 44.6818 171.034C45.3498 171.895 45.6838 173.093 45.6838 174.628V174.778ZM44.0578 174.593C44.0578 173.521 43.8293 172.674 43.3723 172.053C42.9152 171.432 42.2883 171.122 41.4914 171.122C40.507 171.122 39.7688 171.558 39.2766 172.431V176.975C39.7629 177.842 40.507 178.276 41.509 178.276C42.2883 178.276 42.9064 177.968 43.3635 177.353C43.8264 176.732 44.0578 175.812 44.0578 174.593ZM53.6291 179.427C53.5354 179.24 53.4592 178.906 53.4006 178.425C52.6447 179.21 51.7424 179.603 50.6936 179.603C49.7561 179.603 48.9855 179.339 48.382 178.812C47.7844 178.279 47.4855 177.605 47.4855 176.791C47.4855 175.8 47.8605 175.033 48.6105 174.488C49.3664 173.937 50.427 173.662 51.7922 173.662H53.3742V172.915C53.3742 172.346 53.2043 171.895 52.8645 171.561C52.5246 171.221 52.0236 171.051 51.3615 171.051C50.7814 171.051 50.2951 171.198 49.9025 171.491C49.51 171.784 49.3137 172.138 49.3137 172.554H47.6789C47.6789 172.08 47.8459 171.623 48.1799 171.183C48.5197 170.738 48.9768 170.386 49.551 170.128C50.1311 169.871 50.7668 169.742 51.4582 169.742C52.5539 169.742 53.4123 170.017 54.0334 170.568C54.6545 171.113 54.9768 171.866 55.0002 172.827V177.204C55.0002 178.077 55.1115 178.771 55.3342 179.287V179.427H53.6291ZM50.9309 178.188C51.4406 178.188 51.924 178.056 52.3811 177.792C52.8381 177.529 53.1691 177.186 53.3742 176.764V174.813H52.0998C50.1076 174.813 49.1115 175.396 49.1115 176.562C49.1115 177.072 49.2814 177.47 49.6213 177.757C49.9611 178.044 50.3977 178.188 50.9309 178.188ZM61.3635 178.276C61.9436 178.276 62.4504 178.1 62.884 177.749C63.3176 177.397 63.5578 176.958 63.6047 176.43H65.1428C65.1135 176.975 64.926 177.494 64.5803 177.986C64.2346 178.478 63.7717 178.871 63.1916 179.164C62.6174 179.457 62.008 179.603 61.3635 179.603C60.0686 179.603 59.0373 179.172 58.2697 178.311C57.508 177.444 57.1272 176.26 57.1272 174.76V174.488C57.1272 173.562 57.2971 172.739 57.6369 172.018C57.9768 171.297 58.4631 170.738 59.0959 170.339C59.7346 169.941 60.4875 169.742 61.3547 169.742C62.4211 169.742 63.3059 170.061 64.009 170.7C64.718 171.338 65.0959 172.167 65.1428 173.187H63.6047C63.5578 172.572 63.3234 172.068 62.9016 171.675C62.4855 171.277 61.9699 171.078 61.3547 171.078C60.5285 171.078 59.8869 171.376 59.4299 171.974C58.9787 172.566 58.7531 173.424 58.7531 174.549V174.857C58.7531 175.953 58.9787 176.796 59.4299 177.388C59.8811 177.98 60.5256 178.276 61.3635 178.276ZM68.7375 179.427H67.1115V169.917H68.7375V179.427ZM66.9797 167.395C66.9797 167.131 67.0588 166.909 67.217 166.727C67.3811 166.545 67.6213 166.455 67.9377 166.455C68.2541 166.455 68.4943 166.545 68.6584 166.727C68.8225 166.909 68.9045 167.131 68.9045 167.395C68.9045 167.659 68.8225 167.878 68.6584 168.054C68.4943 168.23 68.2541 168.318 67.9377 168.318C67.6213 168.318 67.3811 168.23 67.217 168.054C67.0588 167.878 66.9797 167.659 66.9797 167.395ZM73.5539 167.615V169.917H75.3293V171.174H73.5539V177.072C73.5539 177.453 73.633 177.74 73.7912 177.933C73.9494 178.121 74.2189 178.214 74.5998 178.214C74.7873 178.214 75.0451 178.179 75.3732 178.109V179.427C74.9455 179.544 74.5295 179.603 74.1252 179.603C73.3986 179.603 72.8508 179.383 72.4816 178.944C72.1125 178.504 71.9279 177.88 71.9279 177.072V171.174H70.1965V169.917H71.9279V167.615H73.5539ZM83.1076 179.427C83.0139 179.24 82.9377 178.906 82.8791 178.425C82.1232 179.21 81.2209 179.603 80.1721 179.603C79.2346 179.603 78.4641 179.339 77.8605 178.812C77.2629 178.279 76.9641 177.605 76.9641 176.791C76.9641 175.8 77.3391 175.033 78.0891 174.488C78.8449 173.937 79.9055 173.662 81.2707 173.662H82.8527V172.915C82.8527 172.346 82.6828 171.895 82.343 171.561C82.0031 171.221 81.5022 171.051 80.84 171.051C80.26 171.051 79.7736 171.198 79.3811 171.491C78.9885 171.784 78.7922 172.138 78.7922 172.554H77.1574C77.1574 172.08 77.3244 171.623 77.6584 171.183C77.9982 170.738 78.4553 170.386 79.0295 170.128C79.6096 169.871 80.2453 169.742 80.9367 169.742C82.0324 169.742 82.8908 170.017 83.5119 170.568C84.133 171.113 84.4553 171.866 84.4787 172.827V177.204C84.4787 178.077 84.59 178.771 84.8127 179.287V179.427H83.1076ZM80.4094 178.188C80.9191 178.188 81.4025 178.056 81.8596 177.792C82.3166 177.529 82.6477 177.186 82.8527 176.764V174.813H81.5783C79.5861 174.813 78.59 175.396 78.59 176.562C78.59 177.072 78.76 177.47 79.0998 177.757C79.4397 178.044 79.8762 178.188 80.4094 178.188ZM90.842 178.276C91.4221 178.276 91.9289 178.1 92.3625 177.749C92.7961 177.397 93.0363 176.958 93.0832 176.43H94.6213C94.592 176.975 94.4045 177.494 94.0588 177.986C93.7131 178.478 93.2502 178.871 92.6701 179.164C92.0959 179.457 91.4865 179.603 90.842 179.603C89.5471 179.603 88.5158 179.172 87.7482 178.311C86.9865 177.444 86.6057 176.26 86.6057 174.76V174.488C86.6057 173.562 86.7756 172.739 87.1154 172.018C87.4553 171.297 87.9416 170.738 88.5744 170.339C89.2131 169.941 89.966 169.742 90.8332 169.742C91.8996 169.742 92.7844 170.061 93.4875 170.7C94.1965 171.338 94.5744 172.167 94.6213 173.187H93.0832C93.0363 172.572 92.802 172.068 92.3801 171.675C91.9641 171.277 91.4484 171.078 90.8332 171.078C90.007 171.078 89.3654 171.376 88.9084 171.974C88.4572 172.566 88.2316 173.424 88.2316 174.549V174.857C88.2316 175.953 88.4572 176.796 88.9084 177.388C89.3596 177.98 90.0041 178.276 90.842 178.276ZM98.216 179.427H96.59V169.917H98.216V179.427ZM96.4582 167.395C96.4582 167.131 96.5373 166.909 96.6955 166.727C96.8596 166.545 97.0998 166.455 97.4162 166.455C97.7326 166.455 97.9729 166.545 98.1369 166.727C98.301 166.909 98.383 167.131 98.383 167.395C98.383 167.659 98.301 167.878 98.1369 168.054C97.9729 168.23 97.7326 168.318 97.4162 168.318C97.0998 168.318 96.8596 168.23 96.6955 168.054C96.5373 167.878 96.4582 167.659 96.4582 167.395ZM100.396 174.584C100.396 173.653 100.577 172.815 100.941 172.071C101.31 171.327 101.82 170.752 102.47 170.348C103.126 169.944 103.873 169.742 104.711 169.742C106.006 169.742 107.052 170.19 107.849 171.086C108.652 171.983 109.053 173.175 109.053 174.664V174.778C109.053 175.704 108.874 176.536 108.517 177.274C108.165 178.006 107.658 178.578 106.996 178.988C106.34 179.398 105.584 179.603 104.729 179.603C103.44 179.603 102.394 179.155 101.591 178.258C100.794 177.362 100.396 176.175 100.396 174.699V174.584ZM102.03 174.778C102.03 175.833 102.274 176.679 102.76 177.318C103.252 177.957 103.908 178.276 104.729 178.276C105.555 178.276 106.211 177.954 106.697 177.309C107.184 176.659 107.427 175.75 107.427 174.584C107.427 173.542 107.178 172.698 106.68 172.053C106.188 171.403 105.531 171.078 104.711 171.078C103.908 171.078 103.261 171.397 102.769 172.036C102.277 172.674 102.03 173.588 102.03 174.778ZM112.63 169.917L112.683 171.113C113.409 170.199 114.359 169.742 115.53 169.742C117.54 169.742 118.554 170.875 118.571 173.143V179.427H116.946V173.134C116.94 172.449 116.781 171.942 116.471 171.614C116.166 171.286 115.689 171.122 115.038 171.122C114.511 171.122 114.048 171.262 113.65 171.543C113.251 171.825 112.941 172.194 112.718 172.651V179.427H111.092V169.917H112.63ZM124.97 179.603C123.681 179.603 122.632 179.181 121.823 178.337C121.015 177.488 120.611 176.354 120.611 174.936V174.637C120.611 173.694 120.789 172.853 121.147 172.115C121.51 171.371 122.014 170.791 122.658 170.375C123.309 169.953 124.012 169.742 124.768 169.742C126.004 169.742 126.965 170.149 127.651 170.963C128.336 171.778 128.679 172.944 128.679 174.461V175.138H122.237C122.26 176.076 122.532 176.834 123.054 177.415C123.581 177.989 124.249 178.276 125.058 178.276C125.632 178.276 126.118 178.159 126.517 177.924C126.915 177.69 127.264 177.379 127.563 176.993L128.556 177.766C127.759 178.991 126.564 179.603 124.97 179.603ZM124.768 171.078C124.112 171.078 123.561 171.318 123.115 171.798C122.67 172.273 122.395 172.941 122.289 173.802H127.053V173.679C127.006 172.853 126.783 172.214 126.385 171.763C125.987 171.306 125.447 171.078 124.768 171.078ZM136.106 176.905C136.106 176.465 135.939 176.125 135.605 175.885C135.277 175.639 134.699 175.428 133.873 175.252C133.053 175.077 132.4 174.866 131.913 174.62C131.433 174.374 131.075 174.081 130.841 173.741C130.613 173.401 130.498 172.997 130.498 172.528C130.498 171.749 130.826 171.089 131.483 170.55C132.145 170.011 132.988 169.742 134.014 169.742C135.092 169.742 135.965 170.02 136.633 170.577C137.307 171.133 137.644 171.845 137.644 172.712H136.009C136.009 172.267 135.819 171.883 135.438 171.561C135.063 171.239 134.588 171.078 134.014 171.078C133.422 171.078 132.959 171.207 132.625 171.464C132.291 171.722 132.124 172.059 132.124 172.475C132.124 172.868 132.279 173.164 132.59 173.363C132.901 173.562 133.46 173.752 134.269 173.934C135.083 174.116 135.742 174.333 136.246 174.584C136.75 174.836 137.122 175.141 137.363 175.499C137.609 175.85 137.732 176.281 137.732 176.791C137.732 177.64 137.392 178.323 136.712 178.838C136.032 179.348 135.151 179.603 134.067 179.603C133.305 179.603 132.631 179.468 132.045 179.199C131.459 178.929 130.999 178.554 130.665 178.074C130.337 177.587 130.173 177.063 130.173 176.5H131.799C131.828 177.045 132.045 177.479 132.449 177.801C132.86 178.118 133.399 178.276 134.067 178.276C134.682 178.276 135.174 178.153 135.543 177.907C135.918 177.655 136.106 177.321 136.106 176.905ZM30.6721 197.045L32.8869 189.917H34.6272L30.8039 200.895C30.2121 202.477 29.2717 203.268 27.9826 203.268L27.675 203.242L27.0686 203.127V201.809L27.508 201.844C28.0588 201.844 28.4865 201.733 28.7912 201.51C29.1018 201.288 29.3566 200.88 29.5559 200.289L29.9162 199.322L26.5236 189.917H28.299L30.6721 197.045ZM48.9709 197.186L50.799 189.917H52.425L49.6564 199.427H48.3381L46.0266 192.22L43.7766 199.427H42.4582L39.6984 189.917H41.3156L43.1877 197.037L45.4025 189.917H46.7121L48.9709 197.186ZM53.6555 194.584C53.6555 193.653 53.8371 192.815 54.2004 192.071C54.5695 191.327 55.0793 190.752 55.7297 190.348C56.3859 189.944 57.133 189.742 57.9709 189.742C59.2658 189.742 60.3117 190.19 61.1086 191.086C61.9113 191.983 62.3127 193.175 62.3127 194.664V194.778C62.3127 195.704 62.134 196.536 61.7766 197.274C61.425 198.006 60.9182 198.578 60.2561 198.988C59.5998 199.398 58.8439 199.603 57.9885 199.603C56.6994 199.603 55.6535 199.155 54.8508 198.258C54.0539 197.362 53.6555 196.175 53.6555 194.699V194.584ZM55.2902 194.778C55.2902 195.833 55.5334 196.679 56.0197 197.318C56.5119 197.957 57.1682 198.276 57.9885 198.276C58.8147 198.276 59.4709 197.954 59.9572 197.309C60.4436 196.659 60.6867 195.75 60.6867 194.584C60.6867 193.542 60.4377 192.698 59.9397 192.053C59.4475 191.403 58.7912 191.078 57.9709 191.078C57.1682 191.078 56.5207 191.397 56.0285 192.036C55.5363 192.674 55.2902 193.588 55.2902 194.778ZM68.9484 191.376C68.7023 191.335 68.4357 191.315 68.1486 191.315C67.0822 191.315 66.3586 191.769 65.9777 192.677V199.427H64.3518V189.917H65.9338L65.9602 191.016C66.4934 190.167 67.2492 189.742 68.2277 189.742C68.5441 189.742 68.7844 189.783 68.9484 189.865V191.376ZM73.1057 195.024L72.0861 196.087V199.427H70.4602V185.927H72.0861V194.092L72.9563 193.046L75.9182 189.917H77.8957L74.1955 193.89L78.3264 199.427H76.4191L73.1057 195.024ZM85.1115 196.905C85.1115 196.465 84.9445 196.125 84.6105 195.885C84.2824 195.639 83.7053 195.428 82.8791 195.252C82.0588 195.077 81.4055 194.866 80.9191 194.62C80.4387 194.374 80.0813 194.081 79.8469 193.741C79.6184 193.401 79.5041 192.997 79.5041 192.528C79.5041 191.749 79.8322 191.089 80.4885 190.55C81.1506 190.011 81.9943 189.742 83.0197 189.742C84.0979 189.742 84.9709 190.02 85.6389 190.577C86.3127 191.133 86.6496 191.845 86.6496 192.712H85.0148C85.0148 192.267 84.8244 191.883 84.4436 191.561C84.0686 191.239 83.5939 191.078 83.0197 191.078C82.4279 191.078 81.965 191.207 81.6311 191.464C81.2971 191.722 81.1301 192.059 81.1301 192.475C81.1301 192.868 81.2854 193.164 81.5959 193.363C81.9064 193.562 82.466 193.752 83.2746 193.934C84.0891 194.116 84.7482 194.333 85.2522 194.584C85.7561 194.836 86.1281 195.141 86.3684 195.499C86.6145 195.85 86.7375 196.281 86.7375 196.791C86.7375 197.64 86.3977 198.323 85.718 198.838C85.0383 199.348 84.1564 199.603 83.0725 199.603C82.3107 199.603 81.6369 199.468 81.051 199.199C80.465 198.929 80.0051 198.554 79.6711 198.074C79.343 197.587 79.1789 197.063 79.1789 196.5H80.8049C80.8342 197.045 81.051 197.479 81.4553 197.801C81.8654 198.118 82.4045 198.276 83.0725 198.276C83.6877 198.276 84.1799 198.153 84.549 197.907C84.924 197.655 85.1115 197.321 85.1115 196.905ZM90.4816 191.069C91.2023 190.184 92.1398 189.742 93.2941 189.742C95.3039 189.742 96.3176 190.875 96.3352 193.143V199.427H94.7092V193.134C94.7033 192.449 94.5451 191.942 94.2346 191.614C93.9299 191.286 93.4523 191.122 92.802 191.122C92.2746 191.122 91.8117 191.262 91.4133 191.543C91.0148 191.825 90.7043 192.194 90.4816 192.651V199.427H88.8557V185.927H90.4816V191.069ZM98.3391 194.584C98.3391 193.653 98.5207 192.815 98.884 192.071C99.2531 191.327 99.7629 190.752 100.413 190.348C101.07 189.944 101.817 189.742 102.654 189.742C103.949 189.742 104.995 190.19 105.792 191.086C106.595 191.983 106.996 193.175 106.996 194.664V194.778C106.996 195.704 106.818 196.536 106.46 197.274C106.109 198.006 105.602 198.578 104.94 198.988C104.283 199.398 103.528 199.603 102.672 199.603C101.383 199.603 100.337 199.155 99.5344 198.258C98.7375 197.362 98.3391 196.175 98.3391 194.699V194.584ZM99.9738 194.778C99.9738 195.833 100.217 196.679 100.703 197.318C101.196 197.957 101.852 198.276 102.672 198.276C103.498 198.276 104.154 197.954 104.641 197.309C105.127 196.659 105.37 195.75 105.37 194.584C105.37 193.542 105.121 192.698 104.623 192.053C104.131 191.403 103.475 191.078 102.654 191.078C101.852 191.078 101.204 191.397 100.712 192.036C100.22 192.674 99.9738 193.588 99.9738 194.778ZM117.069 194.778C117.069 196.225 116.738 197.391 116.075 198.276C115.413 199.161 114.517 199.603 113.386 199.603C112.232 199.603 111.323 199.237 110.661 198.504V203.083H109.035V189.917H110.521L110.6 190.972C111.262 190.152 112.182 189.742 113.36 189.742C114.502 189.742 115.404 190.172 116.067 191.034C116.735 191.895 117.069 193.093 117.069 194.628V194.778ZM115.443 194.593C115.443 193.521 115.214 192.674 114.757 192.053C114.3 191.432 113.673 191.122 112.876 191.122C111.892 191.122 111.154 191.558 110.661 192.431V196.975C111.148 197.842 111.892 198.276 112.894 198.276C113.673 198.276 114.291 197.968 114.748 197.353C115.211 196.732 115.443 195.812 115.443 194.593ZM124.68 196.905C124.68 196.465 124.513 196.125 124.179 195.885C123.851 195.639 123.274 195.428 122.447 195.252C121.627 195.077 120.974 194.866 120.488 194.62C120.007 194.374 119.65 194.081 119.415 193.741C119.187 193.401 119.072 192.997 119.072 192.528C119.072 191.749 119.401 191.089 120.057 190.55C120.719 190.011 121.563 189.742 122.588 189.742C123.666 189.742 124.539 190.02 125.207 190.577C125.881 191.133 126.218 191.845 126.218 192.712H124.583C124.583 192.267 124.393 191.883 124.012 191.561C123.637 191.239 123.162 191.078 122.588 191.078C121.996 191.078 121.533 191.207 121.199 191.464C120.865 191.722 120.698 192.059 120.698 192.475C120.698 192.868 120.854 193.164 121.164 193.363C121.475 193.562 122.034 193.752 122.843 193.934C123.657 194.116 124.317 194.333 124.821 194.584C125.324 194.836 125.696 195.141 125.937 195.499C126.183 195.85 126.306 196.281 126.306 196.791C126.306 197.64 125.966 198.323 125.286 198.838C124.607 199.348 123.725 199.603 122.641 199.603C121.879 199.603 121.205 199.468 120.619 199.199C120.033 198.929 119.573 198.554 119.239 198.074C118.911 197.587 118.747 197.063 118.747 196.5H120.373C120.403 197.045 120.619 197.479 121.024 197.801C121.434 198.118 121.973 198.276 122.641 198.276C123.256 198.276 123.748 198.153 124.117 197.907C124.492 197.655 124.68 197.321 124.68 196.905Z" fill="#FAFEFF"/>
<defs>
<filter id="filter0_d" x="0.669575" y="-10.1717" width="152.185" height="151.771" filterUnits="userSpaceOnUse" color-interpolation-filters="sRGB">
<feFlood flood-opacity="0" result="BackgroundImageFix"/>
<feColorMatrix in="SourceAlpha" type="matrix" values="0 0 0 0 0 0 0 0 0 0 0 0 0 0 0 0 0 0 127 0" result="hardAlpha"/>
<feMorphology radius="2.9062" operator="dilate" in="SourceAlpha" result="effect1_dropShadow"/>
<feOffset/>
<feGaussianBlur stdDeviation="3.63275"/>
<feColorMatrix type="matrix" values="0 0 0 0 0 0 0 0 0 1 0 0 0 0 0.407843 0 0 0 1 0"/>
<feBlend mode="normal" in2="BackgroundImageFix" result="effect1_dropShadow"/>
<feBlend mode="normal" in="SourceGraphic" in2="effect1_dropShadow" result="shape"/>
</filter>
<linearGradient id="paint0_linear" x1="10.8415" y1="65.7179" x2="142.682" y2="65.7179" gradientUnits="userSpaceOnUse">
<stop stop-color="#8FFF70"/>
<stop offset="1" stop-color="#8FFFFF"/>
</linearGradient>
<linearGradient id="paint1_linear" x1="43.624" y1="66.0693" x2="108.532" y2="66.0693" gradientUnits="userSpaceOnUse">
<stop stop-color="#8FFF73"/>
<stop offset="1" stop-color="#8FFFF9"/>
</linearGradient>
<linearGradient id="paint2_linear" x1="93.8762" y1="42.4871" x2="95.97" y2="42.4871" gradientUnits="userSpaceOnUse">
<stop stop-color="#8FFF73"/>
<stop offset="1" stop-color="#8FFFF9"/>
</linearGradient>
<linearGradient id="paint3_linear" x1="98.0637" y1="42.4871" x2="100.157" y2="42.4871" gradientUnits="userSpaceOnUse">
<stop stop-color="#8FFF73"/>
<stop offset="1" stop-color="#8FFFF9"/>
</linearGradient>
<linearGradient id="paint4_linear" x1="102.251" y1="42.4871" x2="104.345" y2="42.4871" gradientUnits="userSpaceOnUse">
<stop stop-color="#8FFF73"/>
<stop offset="1" stop-color="#8FFFF9"/>
</linearGradient>
<linearGradient id="paint5_linear" x1="89.6887" y1="44.567" x2="108.532" y2="44.567" gradientUnits="userSpaceOnUse">
<stop stop-color="#8FFF73"/>
<stop offset="1" stop-color="#8FFFF9"/>
</linearGradient>
<clipPath id="clip0">
<rect width="131.841" height="131.427" fill="white" transform="translate(10.8413)"/>
</clipPath>
</defs>
</svg>
