<svg width="169" height="224" viewBox="0 0 169 224" fill="none" xmlns="http://www.w3.org/2000/svg">
<g filter="url(#filter0_d)">
<g clip-path="url(#clip0)">
<path d="M86.2224 131.427C85.4883 131.427 84.7543 131.409 84.0015 131.371C75.4944 130.9 67.5707 127.795 62.8278 123.052L25.5998 85.8052C20.8946 81.0999 18.3349 73.4209 18.5984 64.7633C18.8619 56.3691 21.798 48.5584 26.4844 43.8907L41.5601 28.8151C41.9929 28.3822 42.6893 28.3822 43.1222 28.8151C43.5551 29.248 43.5551 29.9444 43.1222 30.3772L28.0466 45.4529C23.7554 49.7441 21.064 56.9902 20.8193 64.8197C20.5746 72.7622 22.9461 80.0083 27.162 84.2242L64.4088 121.471C68.7753 125.838 76.1531 128.717 84.1332 129.15C92.2074 129.583 99.4912 127.381 103.632 123.24L119.159 107.713C119.592 107.28 120.288 107.28 120.721 107.713C121.154 108.146 121.154 108.842 120.721 109.275L105.194 124.802C100.959 129.075 94.1272 131.427 86.2224 131.427ZM134.574 94.557C134.291 94.557 134.009 94.444 133.783 94.237C133.35 93.8041 133.35 93.1077 133.783 92.6749L141.33 85.1276C145.509 80.9493 148.087 74.0797 148.2 66.7771C148.332 59.2675 145.941 52.5108 141.669 48.2196L102.653 9.20359C98.3807 4.93122 91.2664 2.31509 83.625 2.22099C76.0025 2.12688 68.9823 4.51715 64.8417 8.65778L55.0924 18.4071C54.6595 18.84 53.9631 18.84 53.5302 18.4071C53.0973 17.9742 53.0973 17.2778 53.5302 16.8449L63.2795 7.09564C67.8154 2.54095 75.4379 -0.112819 83.6439 0.000107385C91.9816 0.113034 99.4724 2.89855 104.215 7.62262L143.231 46.6386C147.936 51.3439 150.553 58.6841 150.421 66.7959C150.289 74.6631 147.466 82.0974 142.892 86.6898L135.345 94.237C135.138 94.444 134.856 94.557 134.574 94.557Z" fill="url(#paint0_linear)"/>
</g>
<g clip-path="url(#clip1)">
<path d="M110.303 38.2763C103.031 31.0046 93.3631 27 83.0793 27C72.7956 27 63.1275 31.0046 55.8556 38.2763C48.5838 45.548 44.5793 55.2163 44.5793 65.5C44.5793 75.7837 48.5839 85.4519 55.8556 92.7237C63.1273 99.9955 72.7956 104 83.0793 104C93.3631 104 103.031 99.9954 110.303 92.7237C117.575 85.452 121.579 75.7837 121.579 65.5C121.579 55.2163 117.575 45.5481 110.303 38.2763ZM108.602 91.0222C101.784 97.8394 92.7203 101.594 83.0793 101.594C73.4384 101.594 64.3744 97.8394 57.5572 91.0222C50.7399 84.205 46.9856 75.1409 46.9856 65.5C46.9856 55.8591 50.7399 46.795 57.5572 39.9778C64.3744 33.1606 73.4384 29.4062 83.0793 29.4062C92.7203 29.4062 101.784 33.1606 108.602 39.9778C115.419 46.795 119.173 55.8591 119.173 65.5C119.173 75.1409 115.419 84.205 108.602 91.0222Z" fill="url(#paint1_linear)"/>
<path d="M51.7981 65.5C51.7981 48.2515 65.8309 34.2188 83.0793 34.2188C89.3007 34.2188 95.31 36.0401 100.458 39.486C101.01 39.8557 101.757 39.7077 102.127 39.1555C102.496 38.6034 102.348 37.8561 101.796 37.4864C96.2512 33.7745 89.7789 31.8125 83.0793 31.8125C74.081 31.8125 65.6214 35.3166 59.2587 41.6793C52.8959 48.0421 49.3918 56.5017 49.3918 65.5C49.3918 73.8016 52.4379 81.7771 57.9689 87.9575C58.2065 88.2231 58.5356 88.3583 58.8659 88.3583C59.1514 88.3583 59.4382 88.2573 59.6677 88.0517C60.1628 87.6085 60.2051 86.8479 59.7619 86.3529C54.6265 80.6143 51.7981 73.2086 51.7981 65.5Z" fill="url(#paint2_linear)"/>
<path d="M111.093 46.7834C110.723 46.2312 109.976 46.0832 109.424 46.4529C108.872 46.8225 108.724 47.5698 109.093 48.1219C112.539 53.2695 114.361 59.2788 114.361 65.5C114.361 82.7485 100.328 96.7812 83.0793 96.7812C75.9233 96.7812 68.9282 94.303 63.3828 89.803C62.8668 89.3843 62.1092 89.4631 61.6905 89.9791C61.2718 90.4951 61.3506 91.2527 61.8666 91.6714C67.8394 96.5182 75.3729 99.1875 83.0793 99.1875C92.0777 99.1875 100.537 95.6834 106.9 89.3207C113.263 82.9579 116.767 74.4983 116.767 65.5C116.767 58.8005 114.805 52.3283 111.093 46.7834Z" fill="url(#paint3_linear)"/>
<path d="M103.932 42.1827C104.741 42.9065 105.521 43.6812 106.25 44.4849C106.488 44.7466 106.814 44.8795 107.142 44.8795C107.43 44.8795 107.72 44.7763 107.95 44.5673C108.442 44.1208 108.479 43.3598 108.032 42.8677C107.247 42.0027 106.408 41.1689 105.537 40.3896C105.042 39.9465 104.281 39.9886 103.838 40.4837C103.395 40.9788 103.437 41.7395 103.932 42.1827Z" fill="url(#paint4_linear)"/>
<path d="M83.0793 42.6406C83.7438 42.6406 84.2825 42.1019 84.2825 41.4375V37.8281C84.2825 37.1637 83.7438 36.625 83.0793 36.625C82.4149 36.625 81.8762 37.1637 81.8762 37.8281V41.4375C81.8762 42.1019 82.4149 42.6406 83.0793 42.6406Z" fill="url(#paint5_linear)"/>
<path d="M81.8762 89.5625V93.1719C81.8762 93.8363 82.4149 94.375 83.0793 94.375C83.7438 94.375 84.2825 93.8363 84.2825 93.1719V89.5625C84.2825 88.8981 83.7438 88.3594 83.0793 88.3594C82.4149 88.3594 81.8762 88.8981 81.8762 89.5625Z" fill="url(#paint6_linear)"/>
<path d="M60.22 65.5C60.22 64.8356 59.6813 64.2969 59.0168 64.2969H55.4075C54.743 64.2969 54.2043 64.8356 54.2043 65.5C54.2043 66.1644 54.743 66.7031 55.4075 66.7031H59.0168C59.6813 66.7031 60.22 66.1644 60.22 65.5Z" fill="url(#paint7_linear)"/>
<path d="M105.939 65.5C105.939 66.1644 106.477 66.7031 107.142 66.7031H110.751C111.416 66.7031 111.954 66.1644 111.954 65.5C111.954 64.8356 111.416 64.2969 110.751 64.2969H107.142C106.477 64.2969 105.939 64.8356 105.939 65.5Z" fill="url(#paint8_linear)"/>
<path d="M72.09 44.0597L70.2853 40.9338C69.9531 40.3583 69.2172 40.1614 68.6419 40.4935C68.0665 40.8257 67.8693 41.5616 68.2015 42.137L70.0062 45.2628C70.2291 45.6487 70.6335 45.8645 71.0493 45.8645C71.2534 45.8645 71.4603 45.8125 71.6498 45.7032C72.2251 45.371 72.4222 44.6351 72.09 44.0597Z" fill="url(#paint9_linear)"/>
<path d="M96.1525 85.7371C95.8203 85.1618 95.0843 84.9649 94.509 85.2968C93.9336 85.629 93.7365 86.3649 94.0687 86.9403L95.8734 90.0661C96.0963 90.452 96.5007 90.6679 96.9165 90.6679C97.1206 90.6679 97.3275 90.6158 97.517 90.5065C98.0924 90.1743 98.2896 89.4384 97.9573 88.863L96.1525 85.7371Z" fill="url(#paint10_linear)"/>
<path d="M59.116 80.5392C59.32 80.5392 59.527 80.4872 59.7165 80.3779L62.8423 78.5732C63.4177 78.241 63.6149 77.5051 63.2827 76.9297C62.9505 76.3543 62.2145 76.1575 61.6392 76.4894L58.5133 78.2941C57.9379 78.6263 57.7408 79.3621 58.073 79.9375C58.2957 80.3234 58.7001 80.5392 59.116 80.5392Z" fill="url(#paint11_linear)"/>
<path d="M103.919 54.6721C104.123 54.6721 104.33 54.62 104.52 54.5107L107.645 52.706C108.221 52.3738 108.418 51.6379 108.086 51.0625C107.754 50.4871 107.018 50.2903 106.442 50.6222L103.317 52.4269C102.741 52.7591 102.544 53.4949 102.876 54.0703C103.099 54.4562 103.503 54.6721 103.919 54.6721Z" fill="url(#paint12_linear)"/>
<path d="M97.5169 40.4935C96.9415 40.1611 96.2056 40.3583 95.8734 40.9339L94.0687 44.0597C93.7365 44.6351 93.9336 45.371 94.509 45.7032C94.6985 45.8127 94.9053 45.8646 95.1096 45.8646C95.5254 45.8646 95.9298 45.6487 96.1527 45.2628L97.9573 42.137C98.2894 41.5616 98.0922 40.8257 97.5169 40.4935Z" fill="url(#paint13_linear)"/>
<path d="M71.6497 85.2968C71.0743 84.9646 70.3384 85.1618 70.0062 85.7372L68.2015 88.863C67.8693 89.4384 68.0665 90.1743 68.6419 90.5065C68.8313 90.616 69.0381 90.6679 69.2424 90.6679C69.6582 90.6679 70.0626 90.452 70.2855 90.0661L72.0902 86.9403C72.4222 86.3649 72.2251 85.629 71.6497 85.2968Z" fill="url(#paint14_linear)"/>
<path d="M103.316 78.5731L106.442 80.3778C106.632 80.4873 106.839 80.5392 107.043 80.5392C107.459 80.5392 107.863 80.3234 108.086 79.9375C108.418 79.3621 108.221 78.6262 107.646 78.294L104.52 76.4893C103.944 76.157 103.209 76.3543 102.876 76.9297C102.544 77.5051 102.741 78.2409 103.316 78.5731Z" fill="url(#paint15_linear)"/>
<path d="M62.8422 52.4268L59.7163 50.6221C59.1409 50.2898 58.4051 50.4871 58.0728 51.0625C57.7406 51.6379 57.9378 52.3737 58.5132 52.7059L61.6391 54.5106C61.8286 54.6201 62.0353 54.672 62.2396 54.672C62.6554 54.672 63.0598 54.4562 63.2827 54.0703C63.6147 53.4949 63.4176 52.759 62.8422 52.4268Z" fill="url(#paint16_linear)"/>
<path d="M91.4549 81.2085C91.659 81.2085 91.8659 81.1564 92.0554 81.0471C92.6308 80.7149 92.828 79.979 92.4958 79.4036L85.8214 67.8432C86.3615 67.212 86.6887 66.3938 86.6887 65.5C86.6887 63.9316 85.6828 62.5942 84.2825 62.0976V46.25C84.2825 45.5856 83.7438 45.0469 83.0793 45.0469C82.4149 45.0469 81.8762 45.5856 81.8762 46.25V62.0976C80.4759 62.5942 79.47 63.9316 79.47 65.5C79.47 67.4903 81.0891 69.1094 83.0793 69.1094C83.3045 69.1094 83.5247 69.0876 83.7385 69.048L90.4119 80.6067C90.6348 80.9926 91.0392 81.2085 91.4549 81.2085ZM81.8762 65.5C81.8762 64.8366 82.416 64.2969 83.0793 64.2969C83.7427 64.2969 84.2825 64.8366 84.2825 65.5C84.2825 66.1634 83.7427 66.7031 83.0793 66.7031C82.416 66.7031 81.8762 66.1634 81.8762 65.5Z" fill="url(#paint17_linear)"/>
</g>
</g>
<path d="M47.7793 173.776H42.4092V179.427H40.7217V166.63H48.6494V168.019H42.4092V172.396H47.7793V173.776ZM52.1826 179.427H50.5566V165.927H52.1826V179.427ZM58.7393 179.603C57.4502 179.603 56.4014 179.181 55.5928 178.337C54.7842 177.488 54.3799 176.354 54.3799 174.936V174.637C54.3799 173.694 54.5586 172.853 54.916 172.115C55.2793 171.371 55.7832 170.791 56.4277 170.375C57.0781 169.953 57.7812 169.742 58.5371 169.742C59.7734 169.742 60.7344 170.149 61.4199 170.963C62.1055 171.778 62.4482 172.944 62.4482 174.461V175.138H56.0059C56.0293 176.076 56.3018 176.834 56.8232 177.415C57.3506 177.989 58.0186 178.276 58.8271 178.276C59.4014 178.276 59.8877 178.159 60.2861 177.924C60.6846 177.69 61.0332 177.379 61.332 176.993L62.3252 177.766C61.5283 178.991 60.333 179.603 58.7393 179.603ZM58.5371 171.078C57.8809 171.078 57.3301 171.318 56.8848 171.798C56.4395 172.273 56.1641 172.941 56.0586 173.802H60.8223V173.679C60.7754 172.853 60.5527 172.214 60.1543 171.763C59.7559 171.306 59.2168 171.078 58.5371 171.078ZM67.5283 173.389L69.6377 169.917H71.5361L68.4248 174.62L71.6328 179.427H69.752L67.5547 175.868L65.3574 179.427H63.4678L66.6758 174.62L63.5645 169.917H65.4453L67.5283 173.389ZM75.0342 179.427H73.4082V169.917H75.0342V179.427ZM73.2764 167.395C73.2764 167.131 73.3555 166.909 73.5137 166.727C73.6777 166.545 73.918 166.455 74.2344 166.455C74.5508 166.455 74.791 166.545 74.9551 166.727C75.1191 166.909 75.2012 167.131 75.2012 167.395C75.2012 167.659 75.1191 167.878 74.9551 168.054C74.791 168.23 74.5508 168.318 74.2344 168.318C73.918 168.318 73.6777 168.23 73.5137 168.054C73.3555 167.878 73.2764 167.659 73.2764 167.395ZM85.6953 174.778C85.6953 176.231 85.3613 177.4 84.6934 178.285C84.0254 179.164 83.1289 179.603 82.0039 179.603C80.8027 179.603 79.874 179.178 79.2178 178.329L79.1387 179.427H77.6445V165.927H79.2705V170.963C79.9268 170.149 80.832 169.742 81.9863 169.742C83.1406 169.742 84.0459 170.178 84.7021 171.051C85.3643 171.924 85.6953 173.12 85.6953 174.637V174.778ZM84.0693 174.593C84.0693 173.486 83.8555 172.63 83.4277 172.027C83 171.423 82.3848 171.122 81.582 171.122C80.5098 171.122 79.7393 171.62 79.2705 172.616V176.729C79.7686 177.725 80.5449 178.223 81.5996 178.223C82.3789 178.223 82.9854 177.921 83.4189 177.318C83.8525 176.714 84.0693 175.806 84.0693 174.593ZM89.5186 179.427H87.8926V169.917H89.5186V179.427ZM87.7607 167.395C87.7607 167.131 87.8398 166.909 87.998 166.727C88.1621 166.545 88.4023 166.455 88.7188 166.455C89.0352 166.455 89.2754 166.545 89.4395 166.727C89.6035 166.909 89.6855 167.131 89.6855 167.395C89.6855 167.659 89.6035 167.878 89.4395 168.054C89.2754 168.23 89.0352 168.318 88.7188 168.318C88.4023 168.318 88.1621 168.23 87.998 168.054C87.8398 167.878 87.7607 167.659 87.7607 167.395ZM93.8955 179.427H92.2695V165.927H93.8955V179.427ZM98.2725 179.427H96.6465V169.917H98.2725V179.427ZM96.5146 167.395C96.5146 167.131 96.5938 166.909 96.752 166.727C96.916 166.545 97.1562 166.455 97.4727 166.455C97.7891 166.455 98.0293 166.545 98.1934 166.727C98.3574 166.909 98.4395 167.131 98.4395 167.395C98.4395 167.659 98.3574 167.878 98.1934 168.054C98.0293 168.23 97.7891 168.318 97.4727 168.318C97.1562 168.318 96.916 168.23 96.752 168.054C96.5938 167.878 96.5146 167.659 96.5146 167.395ZM100.487 174.593C100.487 173.134 100.833 171.962 101.524 171.078C102.216 170.187 103.121 169.742 104.24 169.742C105.354 169.742 106.235 170.123 106.886 170.884V165.927H108.512V179.427H107.018L106.938 178.408C106.288 179.205 105.383 179.603 104.223 179.603C103.121 179.603 102.222 179.152 101.524 178.25C100.833 177.347 100.487 176.169 100.487 174.716V174.593ZM102.113 174.778C102.113 175.856 102.336 176.7 102.781 177.309C103.227 177.918 103.842 178.223 104.627 178.223C105.658 178.223 106.411 177.76 106.886 176.834V172.466C106.399 171.57 105.652 171.122 104.645 171.122C103.848 171.122 103.227 171.429 102.781 172.044C102.336 172.66 102.113 173.571 102.113 174.778ZM116.914 179.427C116.82 179.24 116.744 178.906 116.686 178.425C115.93 179.21 115.027 179.603 113.979 179.603C113.041 179.603 112.271 179.339 111.667 178.812C111.069 178.279 110.771 177.605 110.771 176.791C110.771 175.8 111.146 175.033 111.896 174.488C112.651 173.937 113.712 173.662 115.077 173.662H116.659V172.915C116.659 172.346 116.489 171.895 116.149 171.561C115.81 171.221 115.309 171.051 114.646 171.051C114.066 171.051 113.58 171.198 113.188 171.491C112.795 171.784 112.599 172.138 112.599 172.554H110.964C110.964 172.08 111.131 171.623 111.465 171.183C111.805 170.738 112.262 170.386 112.836 170.128C113.416 169.871 114.052 169.742 114.743 169.742C115.839 169.742 116.697 170.017 117.318 170.568C117.939 171.113 118.262 171.866 118.285 172.827V177.204C118.285 178.077 118.396 178.771 118.619 179.287V179.427H116.914ZM114.216 178.188C114.726 178.188 115.209 178.056 115.666 177.792C116.123 177.529 116.454 177.186 116.659 176.764V174.813H115.385C113.393 174.813 112.396 175.396 112.396 176.562C112.396 177.072 112.566 177.47 112.906 177.757C113.246 178.044 113.683 178.188 114.216 178.188ZM120.438 174.593C120.438 173.134 120.784 171.962 121.476 171.078C122.167 170.187 123.072 169.742 124.191 169.742C125.305 169.742 126.187 170.123 126.837 170.884V165.927H128.463V179.427H126.969L126.89 178.408C126.239 179.205 125.334 179.603 124.174 179.603C123.072 179.603 122.173 179.152 121.476 178.25C120.784 177.347 120.438 176.169 120.438 174.716V174.593ZM122.064 174.778C122.064 175.856 122.287 176.7 122.732 177.309C123.178 177.918 123.793 178.223 124.578 178.223C125.609 178.223 126.362 177.76 126.837 176.834V172.466C126.351 171.57 125.604 171.122 124.596 171.122C123.799 171.122 123.178 171.429 122.732 172.044C122.287 172.66 122.064 173.571 122.064 174.778ZM66.3682 199.427H64.6719V193.512H58.2207V199.427H56.5332V186.63H58.2207V192.132H64.6719V186.63H66.3682V199.427ZM68.6797 194.584C68.6797 193.653 68.8613 192.815 69.2246 192.071C69.5938 191.327 70.1035 190.752 70.7539 190.348C71.4102 189.944 72.1572 189.742 72.9951 189.742C74.29 189.742 75.3359 190.19 76.1328 191.086C76.9355 191.983 77.3369 193.175 77.3369 194.664V194.778C77.3369 195.704 77.1582 196.536 76.8008 197.274C76.4492 198.006 75.9424 198.578 75.2803 198.988C74.624 199.398 73.8682 199.603 73.0127 199.603C71.7236 199.603 70.6777 199.155 69.875 198.258C69.0781 197.362 68.6797 196.175 68.6797 194.699V194.584ZM70.3145 194.778C70.3145 195.833 70.5576 196.679 71.0439 197.318C71.5361 197.957 72.1924 198.276 73.0127 198.276C73.8389 198.276 74.4951 197.954 74.9814 197.309C75.4678 196.659 75.7109 195.75 75.7109 194.584C75.7109 193.542 75.4619 192.698 74.9639 192.053C74.4717 191.403 73.8154 191.078 72.9951 191.078C72.1924 191.078 71.5449 191.397 71.0527 192.036C70.5605 192.674 70.3145 193.588 70.3145 194.778ZM83.9727 191.376C83.7266 191.335 83.46 191.315 83.1729 191.315C82.1064 191.315 81.3828 191.769 81.002 192.677V199.427H79.376V189.917H80.958L80.9844 191.016C81.5176 190.167 82.2734 189.742 83.252 189.742C83.5684 189.742 83.8086 189.783 83.9727 189.865V191.376ZM90.9951 199.427C90.9014 199.24 90.8252 198.906 90.7666 198.425C90.0107 199.21 89.1084 199.603 88.0596 199.603C87.1221 199.603 86.3516 199.339 85.748 198.812C85.1504 198.279 84.8516 197.605 84.8516 196.791C84.8516 195.8 85.2266 195.033 85.9766 194.488C86.7324 193.937 87.793 193.662 89.1582 193.662H90.7402V192.915C90.7402 192.346 90.5703 191.895 90.2305 191.561C89.8906 191.221 89.3896 191.051 88.7275 191.051C88.1475 191.051 87.6611 191.198 87.2686 191.491C86.876 191.784 86.6797 192.138 86.6797 192.554H85.0449C85.0449 192.08 85.2119 191.623 85.5459 191.183C85.8857 190.738 86.3428 190.386 86.917 190.128C87.4971 189.871 88.1328 189.742 88.8242 189.742C89.9199 189.742 90.7783 190.017 91.3994 190.568C92.0205 191.113 92.3428 191.866 92.3662 192.827V197.204C92.3662 198.077 92.4775 198.771 92.7002 199.287V199.427H90.9951ZM88.2969 198.188C88.8066 198.188 89.29 198.056 89.7471 197.792C90.2041 197.529 90.5352 197.186 90.7402 196.764V194.813H89.4658C87.4736 194.813 86.4775 195.396 86.4775 196.562C86.4775 197.072 86.6475 197.47 86.9873 197.757C87.3271 198.044 87.7637 198.188 88.2969 198.188ZM99.5117 191.376C99.2656 191.335 98.999 191.315 98.7119 191.315C97.6455 191.315 96.9219 191.769 96.541 192.677V199.427H94.915V189.917H96.4971L96.5234 191.016C97.0566 190.167 97.8125 189.742 98.791 189.742C99.1074 189.742 99.3477 189.783 99.5117 189.865V191.376ZM102.781 199.427H101.155V189.917H102.781V199.427ZM101.023 187.395C101.023 187.131 101.103 186.909 101.261 186.727C101.425 186.545 101.665 186.455 101.981 186.455C102.298 186.455 102.538 186.545 102.702 186.727C102.866 186.909 102.948 187.131 102.948 187.395C102.948 187.659 102.866 187.878 102.702 188.054C102.538 188.23 102.298 188.318 101.981 188.318C101.665 188.318 101.425 188.23 101.261 188.054C101.103 187.878 101.023 187.659 101.023 187.395ZM111.263 199.427C111.169 199.24 111.093 198.906 111.034 198.425C110.278 199.21 109.376 199.603 108.327 199.603C107.39 199.603 106.619 199.339 106.016 198.812C105.418 198.279 105.119 197.605 105.119 196.791C105.119 195.8 105.494 195.033 106.244 194.488C107 193.937 108.061 193.662 109.426 193.662H111.008V192.915C111.008 192.346 110.838 191.895 110.498 191.561C110.158 191.221 109.657 191.051 108.995 191.051C108.415 191.051 107.929 191.198 107.536 191.491C107.144 191.784 106.947 192.138 106.947 192.554H105.312C105.312 192.08 105.479 191.623 105.813 191.183C106.153 190.738 106.61 190.386 107.185 190.128C107.765 189.871 108.4 189.742 109.092 189.742C110.188 189.742 111.046 190.017 111.667 190.568C112.288 191.113 112.61 191.866 112.634 192.827V197.204C112.634 198.077 112.745 198.771 112.968 199.287V199.427H111.263ZM108.564 198.188C109.074 198.188 109.558 198.056 110.015 197.792C110.472 197.529 110.803 197.186 111.008 196.764V194.813H109.733C107.741 194.813 106.745 195.396 106.745 196.562C106.745 197.072 106.915 197.47 107.255 197.757C107.595 198.044 108.031 198.188 108.564 198.188Z" fill="#FAFEFF"/>
<defs>
<filter id="filter0_d" x="8.40764" y="-10.1717" width="152.185" height="151.771" filterUnits="userSpaceOnUse" color-interpolation-filters="sRGB">
<feFlood flood-opacity="0" result="BackgroundImageFix"/>
<feColorMatrix in="SourceAlpha" type="matrix" values="0 0 0 0 0 0 0 0 0 0 0 0 0 0 0 0 0 0 127 0" result="hardAlpha"/>
<feMorphology radius="2.9062" operator="dilate" in="SourceAlpha" result="effect1_dropShadow"/>
<feOffset/>
<feGaussianBlur stdDeviation="3.63275"/>
<feColorMatrix type="matrix" values="0 0 0 0 0 0 0 0 0 1 0 0 0 0 0.407843 0 0 0 1 0"/>
<feBlend mode="normal" in2="BackgroundImageFix" result="effect1_dropShadow"/>
<feBlend mode="normal" in="SourceGraphic" in2="effect1_dropShadow" result="shape"/>
</filter>
<linearGradient id="paint0_linear" x1="18.5796" y1="65.7179" x2="150.42" y2="65.7179" gradientUnits="userSpaceOnUse">
<stop stop-color="#8FFF70"/>
<stop offset="1" stop-color="#8FFFFF"/>
</linearGradient>
<linearGradient id="paint1_linear" x1="44.5793" y1="66.1754" x2="121.579" y2="66.1754" gradientUnits="userSpaceOnUse">
<stop stop-color="#8FFF73"/>
<stop offset="1" stop-color="#8FFFF9"/>
</linearGradient>
<linearGradient id="paint2_linear" x1="49.3918" y1="60.5814" x2="102.33" y2="60.5814" gradientUnits="userSpaceOnUse">
<stop stop-color="#8FFF73"/>
<stop offset="1" stop-color="#8FFFF9"/>
</linearGradient>
<linearGradient id="paint3_linear" x1="61.4215" y1="73.1828" x2="116.767" y2="73.1828" gradientUnits="userSpaceOnUse">
<stop stop-color="#8FFF73"/>
<stop offset="1" stop-color="#8FFFF9"/>
</linearGradient>
<linearGradient id="paint4_linear" x1="103.531" y1="42.5233" x2="108.344" y2="42.5233" gradientUnits="userSpaceOnUse">
<stop stop-color="#8FFF73"/>
<stop offset="1" stop-color="#8FFFF9"/>
</linearGradient>
<linearGradient id="paint5_linear" x1="81.8762" y1="39.6856" x2="84.2825" y2="39.6856" gradientUnits="userSpaceOnUse">
<stop stop-color="#8FFF73"/>
<stop offset="1" stop-color="#8FFFF9"/>
</linearGradient>
<linearGradient id="paint6_linear" x1="81.8762" y1="91.42" x2="84.2825" y2="91.42" gradientUnits="userSpaceOnUse">
<stop stop-color="#8FFF73"/>
<stop offset="1" stop-color="#8FFFF9"/>
</linearGradient>
<linearGradient id="paint7_linear" x1="54.2043" y1="65.5211" x2="60.22" y2="65.5211" gradientUnits="userSpaceOnUse">
<stop stop-color="#8FFF73"/>
<stop offset="1" stop-color="#8FFFF9"/>
</linearGradient>
<linearGradient id="paint8_linear" x1="105.939" y1="65.5211" x2="111.954" y2="65.5211" gradientUnits="userSpaceOnUse">
<stop stop-color="#8FFF73"/>
<stop offset="1" stop-color="#8FFFF9"/>
</linearGradient>
<linearGradient id="paint9_linear" x1="68.0401" y1="43.1469" x2="72.2514" y2="43.1469" gradientUnits="userSpaceOnUse">
<stop stop-color="#8FFF73"/>
<stop offset="1" stop-color="#8FFFF9"/>
</linearGradient>
<linearGradient id="paint10_linear" x1="93.9073" y1="87.9502" x2="98.1187" y2="87.9502" gradientUnits="userSpaceOnUse">
<stop stop-color="#8FFF73"/>
<stop offset="1" stop-color="#8FFFF9"/>
</linearGradient>
<linearGradient id="paint11_linear" x1="57.9116" y1="78.4706" x2="63.4441" y2="78.4706" gradientUnits="userSpaceOnUse">
<stop stop-color="#8FFF73"/>
<stop offset="1" stop-color="#8FFFF9"/>
</linearGradient>
<linearGradient id="paint12_linear" x1="102.715" y1="52.6034" x2="108.247" y2="52.6034" gradientUnits="userSpaceOnUse">
<stop stop-color="#8FFF73"/>
<stop offset="1" stop-color="#8FFFF9"/>
</linearGradient>
<linearGradient id="paint13_linear" x1="93.9073" y1="43.1468" x2="98.1186" y2="43.1468" gradientUnits="userSpaceOnUse">
<stop stop-color="#8FFF73"/>
<stop offset="1" stop-color="#8FFFF9"/>
</linearGradient>
<linearGradient id="paint14_linear" x1="68.0401" y1="87.9502" x2="72.2514" y2="87.9502" gradientUnits="userSpaceOnUse">
<stop stop-color="#8FFF73"/>
<stop offset="1" stop-color="#8FFFF9"/>
</linearGradient>
<linearGradient id="paint15_linear" x1="102.715" y1="78.4705" x2="108.247" y2="78.4705" gradientUnits="userSpaceOnUse">
<stop stop-color="#8FFF73"/>
<stop offset="1" stop-color="#8FFFF9"/>
</linearGradient>
<linearGradient id="paint16_linear" x1="57.9115" y1="52.6033" x2="63.4439" y2="52.6033" gradientUnits="userSpaceOnUse">
<stop stop-color="#8FFF73"/>
<stop offset="1" stop-color="#8FFFF9"/>
</linearGradient>
<linearGradient id="paint17_linear" x1="79.47" y1="63.4449" x2="92.6571" y2="63.4449" gradientUnits="userSpaceOnUse">
<stop stop-color="#8FFF73"/>
<stop offset="1" stop-color="#8FFFF9"/>
</linearGradient>
<clipPath id="clip0">
<rect width="131.841" height="131.427" fill="white" transform="translate(18.5793)"/>
</clipPath>
<clipPath id="clip1">
<rect width="77" height="77" fill="white" transform="translate(44.5793 27)"/>
</clipPath>
</defs>
</svg>
